<svg width="34" height="30" viewBox="0 0 34 30" fill="none" xmlns="http://www.w3.org/2000/svg">
<path d="M31.4662 26.6162H1.69173C0.757444 26.6162 0 27.3737 0 28.3079C0 29.2422 0.757444 29.9997 1.69173 29.9997H31.4662C32.4004 29.9997 33.1579 29.2422 33.1579 28.3079C33.1579 27.3737 32.4004 26.6162 31.4662 26.6162Z" fill="#999999"/>
<path d="M3.43984 24.1356H8.74059C9.33236 24.1356 9.81202 23.6559 9.81202 23.0641V8.40248C9.81202 7.81072 9.33236 7.33105 8.74059 7.33105H3.43984C2.84807 7.33105 2.36841 7.81072 2.36841 8.40248V23.0641C2.36841 23.6559 2.84807 24.1356 3.43984 24.1356Z" fill="#999999"/>
<path d="M13.9286 24.1353H19.2294C19.8211 24.1353 20.3008 23.6557 20.3008 23.0639V1.07143C20.3008 0.479662 19.8211 0 19.2294 0H13.9286C13.3368 0 12.8572 0.479662 12.8572 1.07143V23.0639C12.8572 23.6557 13.3368 24.1353 13.9286 24.1353Z" fill="#999999"/>
<path d="M24.4173 24.1354H29.718C30.3098 24.1354 30.7894 23.6557 30.7894 23.0639V11.2218C30.7894 10.6301 30.3098 10.1504 29.718 10.1504H24.4173C23.8255 10.1504 23.3458 10.6301 23.3458 11.2218V23.0639C23.3458 23.6557 23.8255 24.1354 24.4173 24.1354Z" fill="#999999"/>
</svg>
