<svg width="100" height="75" viewBox="0 0 100 75" xmlns="http://www.w3.org/2000/svg">
<path d="M59.1868 52.7127C59.1868 54.5372 57.7077 56.0163 55.8832 56.0163H43.6863C41.8618 56.0163 40.3827 54.5372 40.3827 52.7127C40.3827 50.8882 41.8618 49.4091 43.6863 49.4091H55.8832C57.7077 49.4091 59.1868 50.8882 59.1868 52.7127ZM99.5686 3.30361V23.8211C99.5686 25.6456 98.0895 27.1247 96.265 27.1247H94.1237V71.6964C94.1237 73.5209 92.6446 75 90.8201 75H8.74885C6.92436 75 5.44525 73.5209 5.44525 71.6964V27.125H3.30361C1.47912 27.125 0 25.6459 0 23.8214V3.30361C0 1.47912 1.47912 0 3.30361 0H96.265C98.0895 0 99.5686 1.47912 99.5686 3.30361ZM87.5165 27.125H66.4446C64.903 34.9134 58.0189 40.8035 49.7848 40.8035C41.5507 40.8035 34.6663 34.9134 33.125 27.125H12.0525V68.3928H87.5165V27.125ZM49.7848 34.1962C54.3513 34.1962 58.2381 31.2311 59.6205 27.125H39.9487C41.3314 31.2311 45.2183 34.1962 49.7848 34.1962ZM92.9614 6.60722H6.60722V20.5175H92.9614V6.60722Z"/>
</svg>
