<svg width="99" height="75" viewBox="0 0 99 75" fill="none" xmlns="http://www.w3.org/2000/svg">
<path d="M98.9575 49.9987C98.9575 46.7701 96.6371 44.2971 92.7066 42.3626V34.4166C92.7067 34.4027 92.7078 34.3891 92.7078 34.3754C92.7078 33.38 92.4745 32.4512 92.0402 31.5862C96.3746 29.0168 98.9564 25.7119 98.9564 21.875V12.5C98.9564 4.5865 83.668 0 64.5814 0C45.4947 0 30.2064 4.58634 30.2064 12.4999V21.8749C30.2064 23.3979 30.6154 24.8365 31.3771 26.1793C26.6943 28.1872 23.9578 30.8489 23.9576 34.3749H23.9564V43.7499C23.9564 47.3855 26.2756 50.5432 30.2064 53.0505V59.375C30.2064 68.7868 45.739 75 64.5815 75C83.424 75 98.9566 68.7868 98.9566 59.375V50.0297C98.9566 50.0193 98.9575 50.0091 98.9575 49.9987ZM92.7073 50H92.7066C92.7066 50.0761 92.6942 50.1536 92.6698 50.2322C92.6692 50.2343 92.6681 50.2365 92.6674 50.2386C92.6558 50.2749 92.6419 50.3114 92.6252 50.3482C92.6205 50.3585 92.6144 50.3692 92.6092 50.3796C92.5953 50.4081 92.5808 50.4367 92.5639 50.4655C92.5549 50.4808 92.5441 50.4962 92.5343 50.5116C92.5189 50.5357 92.5036 50.5598 92.4861 50.5841C92.4725 50.603 92.4569 50.6219 92.4421 50.641C92.4258 50.6619 92.4098 50.6829 92.3918 50.704C92.3735 50.7255 92.3533 50.7472 92.3335 50.7688C92.3164 50.7876 92.2996 50.8062 92.2813 50.825C92.2581 50.8488 92.2332 50.8726 92.2082 50.8966C92.1907 50.9133 92.1734 50.9301 92.1551 50.9469C92.127 50.9725 92.0971 50.9983 92.0671 51.0241C92.0494 51.0392 92.032 51.0545 92.0135 51.0696C91.9801 51.0971 91.9452 51.1247 91.9094 51.1523C91.8921 51.1659 91.8748 51.1793 91.8568 51.1929C91.8179 51.2222 91.7775 51.2515 91.7361 51.2808C91.7192 51.2928 91.7024 51.3047 91.6851 51.3168C91.6406 51.3476 91.5945 51.3786 91.5472 51.4096C91.5313 51.4199 91.5155 51.4305 91.4993 51.4408C91.4486 51.4735 91.3964 51.506 91.3429 51.5386C91.3284 51.5475 91.3139 51.5564 91.2991 51.5652C91.242 51.5995 91.1834 51.6339 91.1232 51.6682C91.1108 51.6752 91.0983 51.6824 91.0856 51.6894C91.0218 51.7254 90.9564 51.7614 90.8892 51.7974C90.879 51.8029 90.8688 51.8083 90.8586 51.8138C90.7875 51.8516 90.7147 51.8894 90.6398 51.9273C90.6332 51.9306 90.6266 51.9339 90.6201 51.9372C90.541 51.977 90.46 52.017 90.3767 52.0568C90.3741 52.0581 90.3714 52.0594 90.3688 52.0607C89.0625 52.6857 87.2512 53.3123 85.0468 53.8836C87.7665 52.3899 89.871 50.6272 91.1795 48.6386C92.2189 49.2712 92.7076 49.7827 92.7076 49.9983C92.7075 49.9992 92.7073 49.9995 92.7073 50ZM30.2064 43.7499V42.0185C30.2197 42.0252 30.2339 42.0318 30.2472 42.0385C30.4187 42.125 30.5932 42.2105 30.7709 42.2949C30.8311 42.3234 30.8934 42.3513 30.9543 42.3797C31.0805 42.4384 31.2074 42.4969 31.3365 42.5546C31.4145 42.5894 31.4938 42.6237 31.5729 42.658C31.69 42.709 31.808 42.7596 31.9275 42.8097C32.0093 42.844 32.0914 42.878 32.1742 42.9119C32.2995 42.9632 32.4264 43.0139 32.5543 43.0641C32.6314 43.0944 32.708 43.1251 32.7859 43.1552C32.9561 43.2208 33.1288 43.2853 33.3031 43.3491C33.3406 43.3628 33.3771 43.377 33.4148 43.3907C33.6227 43.4661 33.8342 43.5403 34.0478 43.6134C34.1232 43.6392 34.1998 43.6643 34.2758 43.6898C34.4223 43.739 34.5695 43.7876 34.7186 43.8357C34.8047 43.8635 34.8914 43.8909 34.9783 43.9182C35.1239 43.964 35.2707 44.0093 35.4185 44.0542C35.504 44.0801 35.5893 44.1061 35.6755 44.1317C35.8443 44.1818 36.015 44.2309 36.1867 44.2796C36.2517 44.298 36.3158 44.317 36.3812 44.3351C36.6182 44.4013 36.8578 44.4662 37.1001 44.5298C37.1548 44.5442 37.2108 44.558 37.2659 44.5724C37.4568 44.6218 37.6489 44.6708 37.8429 44.7187C37.9279 44.7396 38.0136 44.7602 38.0992 44.781C38.2689 44.822 38.4396 44.8625 38.6116 44.9024C38.7012 44.9232 38.791 44.9439 38.8812 44.9644C39.0614 45.0053 39.243 45.0453 39.4257 45.0848C39.5047 45.1019 39.5831 45.1193 39.6626 45.1362C40.1885 45.2479 40.7242 45.3544 41.2694 45.4557C41.3429 45.4693 41.4172 45.4826 41.4911 45.496C41.693 45.5328 41.8958 45.5689 42.1001 45.6043C42.1892 45.6198 42.2788 45.635 42.3685 45.6501C42.5664 45.6835 42.7655 45.7163 42.9657 45.7484C43.0512 45.7621 43.1365 45.776 43.2224 45.7894C43.4564 45.8262 43.6922 45.8619 43.9292 45.8967C43.9786 45.904 44.0276 45.9117 44.0772 45.9188C44.3717 45.9616 44.6683 46.0031 44.9672 46.043C45.0047 46.0481 45.0427 46.0526 45.0803 46.0577C45.336 46.0916 45.5934 46.1244 45.8524 46.1561C45.9339 46.1662 46.0159 46.1758 46.0977 46.1856C46.3194 46.2121 46.5422 46.238 46.7661 46.2631C46.853 46.2728 46.9399 46.2824 47.0271 46.2919C47.2632 46.3175 47.5005 46.3424 47.739 46.3664C47.8072 46.3732 47.8749 46.3804 47.9434 46.3871C48.5668 46.4486 49.1979 46.5043 49.8365 46.5542C49.8978 46.5589 49.9596 46.5634 50.0211 46.5681C50.2768 46.5876 50.5336 46.6062 50.7917 46.6239C50.8747 46.6296 50.9578 46.6351 51.0411 46.6406C51.2899 46.657 51.5395 46.6725 51.7902 46.6873C51.8659 46.6917 51.9414 46.6963 52.0172 46.7005C52.3185 46.7176 52.6209 46.7335 52.925 46.748C52.9453 46.7489 52.9654 46.7501 52.9859 46.751C53.3284 46.7672 53.6727 46.7819 54.0186 46.795C54.0329 46.7956 54.0473 46.7959 54.0616 46.7965C54.3767 46.8083 54.6932 46.8185 55.0109 46.8276C55.0821 46.8296 55.1537 46.8315 55.2253 46.8333C55.4938 46.8405 55.7631 46.8467 56.0334 46.8521C56.1112 46.8536 56.189 46.8551 56.2671 46.8565C56.5534 46.8615 56.8407 46.8655 57.1289 46.8684C57.1805 46.8688 57.2319 46.8696 57.2835 46.8701C57.6319 46.8731 57.9813 46.8752 58.3323 46.8752C58.6838 46.8752 59.0337 46.8733 59.3827 46.8701C59.4292 46.8696 59.4754 46.869 59.522 46.8685C59.8171 46.8655 60.1111 46.8615 60.4043 46.8563C60.4755 46.8551 60.5466 46.8537 60.6176 46.8522C60.898 46.8467 61.1776 46.8402 61.456 46.8327C61.5174 46.831 61.5789 46.8295 61.6401 46.8278C62.6636 46.7985 63.6735 46.7556 64.668 46.6992C64.7228 46.6961 64.7774 46.6928 64.8321 46.6896C65.1084 46.6734 65.3835 46.6563 65.6574 46.6381C65.7186 46.634 65.7796 46.63 65.8407 46.6259C66.1315 46.6061 66.421 46.585 66.709 46.5629C66.7397 46.5606 66.7705 46.5583 66.8012 46.556C67.459 46.5048 68.1092 46.4472 68.751 46.3839C68.7809 46.381 68.8106 46.3778 68.8406 46.3748C69.1224 46.3467 69.4024 46.3172 69.681 46.2869C69.7352 46.2809 69.7892 46.275 69.8434 46.2689C70.1096 46.2393 70.3744 46.2086 70.6376 46.1769C70.6817 46.1715 70.7261 46.1663 70.77 46.161C71.6972 46.0476 72.6043 45.9211 73.4899 45.7816C73.5314 45.7751 73.5725 45.7684 73.6138 45.7618C73.8667 45.7215 74.1175 45.6802 74.3668 45.6378C74.4128 45.63 74.4589 45.6222 74.5048 45.6143C74.7714 45.5683 75.0358 45.5213 75.2981 45.4731C75.3149 45.4701 75.3318 45.467 75.3486 45.464C75.9267 45.357 76.4942 45.2441 77.0506 45.1255C77.071 45.1211 77.0913 45.1167 77.1117 45.1122C77.3603 45.059 77.6064 45.0045 77.8504 44.9488C77.8916 44.9395 77.9327 44.9301 77.9737 44.9206C78.2079 44.8667 78.4399 44.8116 78.6697 44.7556C78.701 44.748 78.7324 44.7405 78.7637 44.7329C79.5527 44.539 80.3153 44.3324 81.0502 44.1134C81.0815 44.1041 81.1123 44.0946 81.1436 44.0853C81.3558 44.0215 81.5656 43.9567 81.7732 43.8909C81.8078 43.8799 81.8424 43.869 81.8769 43.858C82.0999 43.7866 82.3202 43.7141 82.5373 43.6404C82.5463 43.6373 82.5555 43.6344 82.5643 43.6314C83.034 43.4715 83.4901 43.3058 83.9323 43.1347C83.9474 43.1289 83.9623 43.1228 83.9775 43.117C84.1752 43.0401 84.3699 42.9621 84.5619 42.8829C84.5935 42.8698 84.625 42.8568 84.6565 42.8437C84.8403 42.7673 85.0216 42.6898 85.2 42.6112C85.2233 42.6009 85.2471 42.5907 85.2703 42.5804C85.6803 42.3986 86.0763 42.2117 86.4566 42.0191V43.5368L86.4021 43.9854C85.865 48.412 73.5604 53.1243 58.3324 53.1243C57.7536 53.1243 57.1779 53.1178 56.6057 53.1047C56.6053 53.1047 56.605 53.1047 56.6045 53.1047C56.3511 53.0989 56.0987 53.0912 55.8467 53.083C55.7799 53.0807 55.7131 53.0786 55.6464 53.0761C55.4804 53.0702 55.315 53.0632 55.1497 53.0561C55.018 53.0505 54.8862 53.045 54.7551 53.0386C54.7104 53.0365 54.666 53.0339 54.6215 53.0317C50.2104 52.8085 46.1385 52.1983 42.6346 51.34C42.585 51.3276 42.5346 51.3157 42.4854 51.3034C42.4507 51.2948 42.4168 51.286 42.3824 51.2773C39.6274 50.576 37.1806 49.694 35.1636 48.6634L33.3862 47.7554C31.3533 46.4694 30.2064 45.0828 30.2064 43.7499ZM92.7066 21.8749C92.7066 23.6347 90.7089 25.4882 87.3086 27.0783L87.3019 27.0737L85.7449 27.7115C84.2712 28.3153 82.6406 28.8508 80.8863 29.3116C76.3043 30.494 70.6878 31.2499 64.5815 31.2499C64.5299 31.2499 64.4787 31.2493 64.4271 31.2491C64.1851 31.2487 63.9438 31.247 63.7031 31.2441C63.5752 31.2426 63.4476 31.2406 63.3201 31.2385C63.1505 31.2356 62.9815 31.2319 62.8126 31.2279C62.1996 31.2133 61.5918 31.1918 60.9908 31.1623C60.9791 31.1617 60.9673 31.1613 60.9556 31.1606C56.2116 30.9261 51.8573 30.2436 48.1771 29.2858C44.1708 28.2279 40.8862 26.796 38.7274 25.1197L37.5546 24.209C36.8399 23.4331 36.4564 22.6452 36.4564 21.8752V20.1438C36.4658 20.1485 36.4755 20.1529 36.4848 20.1577C36.6635 20.2478 36.8452 20.3368 37.0305 20.4247C37.0705 20.4436 37.1118 20.4621 37.1519 20.4808C37.299 20.5497 37.4478 20.6179 37.5989 20.6852C37.6648 20.7146 37.7319 20.7435 37.7986 20.7726C37.9288 20.8294 38.0603 20.8857 38.1934 20.9415C38.2652 20.9716 38.3373 21.0015 38.4099 21.0312C38.5477 21.0877 38.6871 21.1434 38.8278 21.1986C38.8939 21.2246 38.9592 21.2508 39.026 21.2764C39.2197 21.3511 39.4157 21.4248 39.6146 21.4972C39.6283 21.5023 39.6414 21.5075 39.6552 21.5123C39.8683 21.5897 40.085 21.6655 40.3041 21.7405C40.3714 21.7635 40.4401 21.7859 40.508 21.8088C40.6625 21.8607 40.8182 21.9121 40.9755 21.9629C41.0562 21.9889 41.1374 22.0147 41.2189 22.0403C41.3707 22.0882 41.5237 22.1354 41.6782 22.1822C41.7586 22.2065 41.8387 22.231 41.9197 22.255C42.0943 22.3067 42.271 22.3577 42.4487 22.408C42.5089 22.4251 42.5682 22.4425 42.6286 22.4595C42.8668 22.526 43.1075 22.5911 43.351 22.6552C43.4042 22.6693 43.4587 22.6827 43.5123 22.6966C43.7044 22.7463 43.8977 22.7956 44.093 22.8438C44.1782 22.8649 44.2642 22.8855 44.35 22.9062C44.5186 22.947 44.6881 22.9873 44.8592 23.0269C44.9507 23.0481 45.0426 23.0694 45.1349 23.0903C45.3107 23.1301 45.488 23.1691 45.6662 23.2078C45.75 23.2259 45.8331 23.2444 45.9174 23.2622C46.1652 23.3149 46.415 23.3664 46.6672 23.4168C46.6805 23.4194 46.6936 23.4223 46.7069 23.4249C46.9725 23.4777 47.2411 23.5289 47.5115 23.5791C47.596 23.5949 47.6814 23.61 47.7664 23.6254C47.9556 23.6597 48.1456 23.6937 48.337 23.7269C48.4365 23.7441 48.5364 23.761 48.6367 23.778C48.8208 23.8091 49.0059 23.8395 49.1921 23.8694C49.2905 23.8852 49.3888 23.9011 49.4876 23.9167C49.699 23.9498 49.912 23.982 50.1258 24.0136C50.1976 24.0242 50.2687 24.0352 50.3408 24.0458C50.6258 24.0871 50.913 24.1272 51.2023 24.166C51.2699 24.175 51.3384 24.1836 51.4063 24.1924C51.63 24.2219 51.8546 24.2505 52.0807 24.2785C52.1831 24.2911 52.2861 24.3032 52.3889 24.3155C52.5861 24.339 52.7838 24.3621 52.9827 24.3844C53.0907 24.3964 53.1987 24.4085 53.3072 24.4204C53.5132 24.4428 53.7204 24.4643 53.9281 24.4854C54.0247 24.4951 54.1208 24.5052 54.2179 24.5148C54.5139 24.544 54.8113 24.5719 55.1107 24.5984C55.1178 24.5991 55.1249 24.5998 55.1319 24.6004C55.4386 24.6274 55.7476 24.6529 56.0578 24.6773C56.1553 24.685 56.2535 24.6921 56.3514 24.6995C56.5671 24.7158 56.7835 24.7316 57.0008 24.7466C57.1143 24.7544 57.2281 24.762 57.3421 24.7695C57.5522 24.7832 57.7631 24.7963 57.9747 24.8089C58.0851 24.8154 58.1952 24.8221 58.306 24.8282C58.5486 24.8418 58.7923 24.8545 59.0366 24.8664C59.1137 24.8702 59.1904 24.8745 59.2676 24.878C59.5884 24.8931 59.9106 24.9067 60.2344 24.919C60.3127 24.9219 60.3916 24.9244 60.47 24.9271C60.7175 24.936 60.9656 24.9442 61.2146 24.9515C61.3288 24.9549 61.4434 24.9576 61.558 24.9607C61.7766 24.9663 61.9957 24.9715 62.2156 24.9759C62.3353 24.9784 62.455 24.9807 62.575 24.9828C62.8028 24.9868 63.0314 24.9898 63.2604 24.9923C63.3664 24.9935 63.4723 24.995 63.5787 24.9959C63.9118 24.9988 64.2458 25.0005 64.5814 25.0005C64.9169 25.0005 65.2509 24.9987 65.584 24.9959C65.6904 24.995 65.7963 24.9935 65.9023 24.9923C66.1313 24.9897 66.3599 24.9866 66.5877 24.9828C66.7077 24.9808 66.8275 24.9784 66.9471 24.9759C67.167 24.9715 67.3861 24.9663 67.6047 24.9607C67.7192 24.9576 67.8338 24.9549 67.9481 24.9515C68.1972 24.9442 68.4453 24.936 68.6927 24.9271C68.7711 24.9244 68.85 24.9219 68.9283 24.919C69.2519 24.9067 69.5742 24.8931 69.8949 24.878C69.9723 24.8743 70.049 24.87 70.1263 24.8662C70.3706 24.8542 70.6141 24.8417 70.8565 24.8281C70.9673 24.8218 71.0776 24.8153 71.1881 24.8087C71.3996 24.7962 71.6105 24.7831 71.8204 24.7693C71.9344 24.7619 72.0484 24.7542 72.1621 24.7465C72.3794 24.7315 72.5956 24.7156 72.8112 24.6993C72.9092 24.6918 73.0074 24.6848 73.1051 24.6772C73.4153 24.6528 73.7243 24.6274 74.031 24.6003C74.0382 24.5997 74.0452 24.5989 74.0524 24.5983C74.3517 24.5717 74.6491 24.5437 74.945 24.5147C75.042 24.5051 75.1383 24.495 75.2351 24.4852C75.4427 24.4642 75.6496 24.4426 75.8556 24.4202C75.9641 24.4085 76.0723 24.3964 76.1805 24.3842C76.3793 24.3619 76.5771 24.3389 76.7742 24.3154C76.8771 24.3032 76.9801 24.291 77.0824 24.2783C77.3084 24.2505 77.5329 24.2217 77.7564 24.1924C77.8245 24.1834 77.8932 24.175 77.9609 24.1659C78.2501 24.1271 78.5371 24.0871 78.8221 24.0458C78.8944 24.0352 78.9657 24.0242 79.0379 24.0136C79.2513 23.982 79.464 23.9499 79.6752 23.9168C79.7744 23.9013 79.8728 23.8854 79.9714 23.8695C80.1573 23.8396 80.3422 23.8093 80.5262 23.7781C80.6265 23.7612 80.7267 23.7443 80.8264 23.727C81.0175 23.6939 81.2072 23.66 81.3961 23.6257C81.4813 23.6101 81.567 23.595 81.6517 23.5793C81.9219 23.5291 82.1905 23.4778 82.456 23.425C82.4699 23.4223 82.4833 23.4194 82.497 23.4166C82.7488 23.3664 82.998 23.3149 83.2453 23.2624C83.3299 23.2444 83.4132 23.2259 83.4973 23.2078C83.6752 23.1691 83.8523 23.1302 84.0278 23.0904C84.1203 23.0695 84.2123 23.0483 84.304 23.0269C84.4747 22.9874 84.6441 22.9471 84.8124 22.9064C84.8983 22.8856 84.9845 22.865 85.07 22.8438C85.2651 22.7956 85.4583 22.7465 85.6503 22.6967C85.7038 22.6828 85.7583 22.6694 85.8117 22.6554C86.0551 22.5914 86.2959 22.5261 86.5339 22.4598C86.5946 22.4428 86.6543 22.4253 86.7147 22.408C86.8922 22.3577 87.0684 22.307 87.2427 22.2553C87.324 22.2312 87.4043 22.2068 87.4848 22.1824C87.639 22.1357 87.792 22.0885 87.9435 22.0408C88.025 22.0151 88.1063 21.9893 88.1871 21.9634C88.3444 21.9127 88.4999 21.8613 88.6543 21.8094C88.7223 21.7865 88.7912 21.7641 88.8586 21.7409C89.0776 21.666 89.2942 21.5902 89.5072 21.513C89.5214 21.5078 89.5352 21.5024 89.5494 21.4972C89.7477 21.4249 89.9433 21.3514 90.1364 21.2771C90.2034 21.2513 90.269 21.225 90.3352 21.1989C90.4756 21.1437 90.6149 21.0881 90.7524 21.0318C90.8252 21.0021 90.8975 20.972 90.9693 20.9418C91.1023 20.8861 91.2333 20.83 91.3633 20.7734C91.4303 20.7442 91.4975 20.7151 91.5637 20.6856C91.7147 20.6183 91.8632 20.5501 92.0102 20.4815C92.0504 20.4625 92.0919 20.4441 92.1319 20.4252C92.3172 20.3374 92.4989 20.2483 92.6774 20.1583C92.6867 20.1535 92.6967 20.149 92.706 20.1442V21.8749H92.7066ZM64.5815 6.24986C80.0144 6.24986 92.7066 10.0574 92.7066 12.4999C92.7066 14.9424 80.0144 18.7499 64.5815 18.7499C49.1486 18.7499 36.4564 14.9424 36.4564 12.4999C36.4564 10.0574 49.1486 6.24986 64.5815 6.24986ZM31.465 33.202C32.574 32.4453 34.1965 31.7025 36.2347 31.0323C42.0596 34.8437 51.5694 37.1868 62.3626 37.4699C62.4096 37.4711 62.4566 37.4723 62.5036 37.4735C62.7683 37.4801 63.034 37.4853 63.3002 37.4892C63.3993 37.4908 63.4981 37.4926 63.5973 37.4938C63.8514 37.4967 64.1064 37.4981 64.3616 37.4989C64.4355 37.499 64.5089 37.5004 64.5827 37.5004C64.8641 37.5004 65.1447 37.4986 65.4249 37.4957C65.5009 37.4949 65.5764 37.4935 65.6522 37.4924C65.8329 37.4902 66.0134 37.4876 66.1934 37.4841C66.3691 37.4807 66.5439 37.4764 66.719 37.472C66.7797 37.4705 66.8404 37.4689 66.9012 37.4673C74.2335 37.2662 80.9699 36.1143 86.3546 34.1964C86.4253 34.2869 86.4575 34.3487 86.4576 34.3751H86.4566C86.4566 36.8175 73.7644 40.6251 58.3315 40.6251C50.3745 40.6251 43.1461 39.613 38.0101 38.2975C33.1854 37.0617 30.2077 35.5584 30.2077 34.3754C30.2077 34.2826 30.5128 33.8515 31.465 33.202ZM92.7066 59.375C92.7066 63.7698 80.2567 68.75 64.5815 68.75C48.9063 68.75 36.4564 63.7698 36.4564 59.375V57.6436C42.6602 60.7852 52.9108 62.5 64.5815 62.5C65.4745 62.5 66.3581 62.4887 67.2332 62.4687C67.2385 62.4685 67.2439 62.4684 67.2491 62.4684C68.6976 62.4351 70.1199 62.3749 71.511 62.2879C71.5281 62.2868 71.5452 62.2857 71.5623 62.2847C71.8334 62.2676 72.1035 62.2496 72.3724 62.2305C72.3774 62.2302 72.3823 62.2297 72.3873 62.2294C73.4829 62.1515 74.5577 62.0566 75.6095 61.9455C75.6283 61.9435 75.6472 61.9415 75.666 61.9395C75.9116 61.9134 76.1559 61.8863 76.399 61.8583C76.432 61.8545 76.4649 61.8507 76.4979 61.8469C77.5237 61.7279 78.5264 61.5931 79.5028 61.4424C79.5144 61.4406 79.5261 61.4389 79.5377 61.437C79.7598 61.4027 79.9798 61.3673 80.1991 61.3313C80.2462 61.3235 80.2932 61.3159 80.3402 61.3081C80.5523 61.2729 80.7632 61.237 80.9725 61.2002C81.0137 61.1931 81.0545 61.1856 81.0955 61.1784C82.0025 61.0176 82.8842 60.8426 83.7385 60.6537C83.7933 60.6416 83.8482 60.6296 83.9027 60.6173C84.0844 60.5766 84.2646 60.5351 84.4438 60.4931C84.5069 60.4783 84.5698 60.4634 84.6327 60.4484C84.8112 60.4059 84.9891 60.363 85.165 60.3192C85.2098 60.308 85.2539 60.2966 85.2983 60.2855C85.8744 60.1404 86.4361 59.9885 86.983 59.8298C87.0423 59.8126 87.1023 59.7957 87.1614 59.7783C87.3139 59.7334 87.4647 59.6876 87.6149 59.6415C87.689 59.6188 87.763 59.5961 87.8364 59.5732C87.9815 59.5279 88.1259 59.4821 88.2687 59.4359C88.3412 59.4124 88.4129 59.3884 88.4848 59.3646C88.6293 59.3168 88.7738 59.2691 88.9157 59.2202C88.9564 59.2062 88.9961 59.1919 89.0365 59.1778C89.3298 59.0759 89.6171 58.9717 89.8994 58.8653C89.9617 58.8418 90.0248 58.8188 90.0865 58.7951C90.2101 58.7477 90.3314 58.6995 90.4527 58.6512C90.5326 58.6195 90.6126 58.5878 90.6916 58.5556C90.8073 58.5086 90.9216 58.461 91.0351 58.4132C91.1171 58.3787 91.1982 58.3438 91.2791 58.3088C91.389 58.2614 91.4987 58.2138 91.6066 58.1656C91.6888 58.1288 91.7692 58.0914 91.8501 58.0542C92.019 57.9765 92.1855 57.8979 92.3492 57.8184C92.4498 57.7696 92.5512 57.7209 92.6498 57.6713C92.6683 57.662 92.6876 57.653 92.7061 57.6437V59.375H92.7066Z" fill="#3D3D3D"/>
<path d="M12.7348 0.741093C13.2434 0.225076 13.9536 -0.0438649 14.677 0.00642485C15.3762 -0.0460514 16.058 0.225076 16.5315 0.741093L28.5505 12.686C29.5457 13.6787 29.5457 15.288 28.5505 16.2806C27.5553 17.2733 25.942 17.2733 24.9468 16.2806L17.1781 8.53163V26.7584C17.1869 28.1534 16.0602 29.2904 14.6616 29.2969C14.6572 29.2969 14.6529 29.2969 14.6463 29.2969C13.2434 29.2882 12.1079 28.1578 12.1013 26.7584V8.53382L4.35015 16.2806C3.35495 17.2733 1.74159 17.2733 0.746398 16.2806C-0.248799 15.288 -0.248799 13.6787 0.746398 12.686L12.7348 0.741093Z" fill="#3D3D3D"/>
</svg>
