<svg width="276" height="75" viewBox="0 0 276 75" fill="none" xmlns="http://www.w3.org/2000/svg">
<circle cx="37.5" cy="37.5" r="37.5" fill="#1890FF"/>
<path d="M58.6477 52.575C58.6477 54.125 58.3727 55.275 57.8227 56.025C57.2727 56.775 56.3977 57.5 55.1977 58.2C54.4977 58.6 53.6227 59 52.5727 59.4C51.5227 59.75 50.3727 60.05 49.1227 60.3C47.8727 60.6 46.5477 60.825 45.1477 60.975C43.7977 61.125 42.4477 61.2 41.0977 61.2C37.4977 61.2 34.1227 60.725 30.9727 59.775C27.8227 58.775 25.0727 57.3 22.7227 55.35C20.4227 53.35 18.5977 50.875 17.2477 47.925C15.8977 44.975 15.2227 41.55 15.2227 37.65C15.2227 33.55 15.9477 29.975 17.3977 26.925C18.8977 23.875 20.8477 21.35 23.2477 19.35C25.6977 17.3 28.4727 15.775 31.5727 14.775C34.7227 13.775 37.9477 13.275 41.2477 13.275C45.9977 13.275 49.7477 14.05 52.4977 15.6C55.2977 17.1 56.6977 19.075 56.6977 21.525C56.6977 22.825 56.3727 23.95 55.7227 24.9C55.0727 25.85 54.3227 26.6 53.4727 27.15C52.2227 26.4 50.6477 25.675 48.7477 24.975C46.8977 24.225 44.7977 23.85 42.4477 23.85C38.2477 23.85 34.8977 25.05 32.3977 27.45C29.9477 29.85 28.7227 33.175 28.7227 37.425C28.7227 39.725 29.0477 41.725 29.6977 43.425C30.3977 45.075 31.3227 46.45 32.4727 47.55C33.6227 48.6 34.9477 49.4 36.4477 49.95C37.9477 50.45 39.5477 50.7 41.2477 50.7C42.3477 50.7 43.3227 50.6 44.1727 50.4C45.0227 50.2 45.6727 49.975 46.1227 49.725V42.675H38.0977C37.7977 42.125 37.4977 41.4 37.1977 40.5C36.9477 39.6 36.8227 38.65 36.8227 37.65C36.8227 35.85 37.2227 34.55 38.0227 33.75C38.8727 32.95 39.9477 32.55 41.2477 32.55H53.9227C55.4227 32.55 56.5727 32.975 57.3727 33.825C58.2227 34.625 58.6477 35.775 58.6477 37.275V52.575Z" fill="white"/>
<path d="M103.964 26.445C106.054 26.445 107.942 26.72 109.629 27.27C111.352 27.7833 112.801 28.4617 113.974 29.305C114.707 29.8183 115.276 30.3867 115.679 31.01C116.119 31.6333 116.339 32.44 116.339 33.43V52.68C116.339 54.6233 115.972 56.2917 115.239 57.685C114.506 59.115 113.497 60.2883 112.214 61.205C110.967 62.1583 109.482 62.855 107.759 63.295C106.072 63.735 104.257 63.955 102.314 63.955C98.9772 63.955 96.3555 63.4967 94.4488 62.58C92.5422 61.7 91.5888 60.2517 91.5888 58.235C91.5888 57.3917 91.7538 56.64 92.0838 55.98C92.4505 55.3567 92.8538 54.88 93.2938 54.55C94.3572 55.1367 95.5488 55.6317 96.8688 56.035C98.2255 56.4383 99.6188 56.64 101.049 56.64C103.029 56.64 104.606 56.31 105.779 55.65C106.952 54.99 107.539 53.9267 107.539 52.46V51.58C106.036 52.24 104.202 52.57 102.039 52.57C100.389 52.57 98.8122 52.3317 97.3088 51.855C95.8422 51.3417 94.5405 50.5717 93.4038 49.545C92.3038 48.4817 91.4055 47.125 90.7088 45.475C90.0488 43.825 89.7188 41.8633 89.7188 39.59C89.7188 37.3533 90.0672 35.41 90.7638 33.76C91.4972 32.11 92.4872 30.7533 93.7338 29.69C95.0172 28.59 96.5205 27.7833 98.2438 27.27C100.004 26.72 101.911 26.445 103.964 26.445ZM107.374 34.42C107.117 34.2733 106.732 34.1267 106.219 33.98C105.742 33.8333 105.137 33.76 104.404 33.76C102.607 33.76 101.251 34.2733 100.334 35.3C99.4538 36.29 99.0138 37.72 99.0138 39.59C99.0138 41.7167 99.4538 43.2567 100.334 44.21C101.251 45.1267 102.406 45.585 103.799 45.585C105.302 45.585 106.494 45.2367 107.374 44.54V34.42ZM131.485 53.945C131.118 54.055 130.532 54.165 129.725 54.275C128.955 54.385 128.148 54.44 127.305 54.44C126.498 54.44 125.765 54.385 125.105 54.275C124.482 54.165 123.95 53.945 123.51 53.615C123.07 53.285 122.722 52.845 122.465 52.295C122.245 51.7083 122.135 50.9567 122.135 50.04V33.54C122.135 32.6967 122.282 31.9817 122.575 31.395C122.905 30.7717 123.363 30.2217 123.95 29.745C124.537 29.2683 125.252 28.8467 126.095 28.48C126.975 28.0767 127.91 27.7283 128.9 27.435C129.89 27.1417 130.917 26.9217 131.98 26.775C133.043 26.5917 134.107 26.5 135.17 26.5C136.93 26.5 138.323 26.8483 139.35 27.545C140.377 28.205 140.89 29.305 140.89 30.845C140.89 31.3583 140.817 31.8717 140.67 32.385C140.523 32.8617 140.34 33.3017 140.12 33.705C139.35 33.705 138.562 33.7417 137.755 33.815C136.948 33.8883 136.16 33.9983 135.39 34.145C134.62 34.2917 133.887 34.4567 133.19 34.64C132.53 34.7867 131.962 34.97 131.485 35.19V53.945ZM171.392 40.635C171.392 42.9083 171.043 44.9433 170.347 46.74C169.65 48.5 168.66 49.985 167.377 51.195C166.13 52.405 164.627 53.3217 162.867 53.945C161.107 54.5683 159.145 54.88 156.982 54.88C154.818 54.88 152.857 54.55 151.097 53.89C149.337 53.23 147.815 52.295 146.532 51.085C145.285 49.8383 144.313 48.335 143.617 46.575C142.92 44.815 142.572 42.835 142.572 40.635C142.572 38.4717 142.92 36.51 143.617 34.75C144.313 32.99 145.285 31.505 146.532 30.295C147.815 29.0483 149.337 28.095 151.097 27.435C152.857 26.775 154.818 26.445 156.982 26.445C159.145 26.445 161.107 26.7933 162.867 27.49C164.627 28.15 166.13 29.1033 167.377 30.35C168.66 31.56 169.65 33.045 170.347 34.805C171.043 36.565 171.392 38.5083 171.392 40.635ZM152.142 40.635C152.142 42.8717 152.563 44.595 153.407 45.805C154.287 46.9783 155.497 47.565 157.037 47.565C158.577 47.565 159.75 46.96 160.557 45.75C161.4 44.54 161.822 42.835 161.822 40.635C161.822 38.435 161.4 36.7483 160.557 35.575C159.713 34.365 158.522 33.76 156.982 33.76C155.442 33.76 154.25 34.365 153.407 35.575C152.563 36.7483 152.142 38.435 152.142 40.635ZM198.503 46.025C198.503 48.8117 197.458 50.9933 195.368 52.57C193.278 54.1467 190.198 54.935 186.128 54.935C184.588 54.935 183.158 54.825 181.838 54.605C180.518 54.385 179.382 54.055 178.428 53.615C177.512 53.1383 176.778 52.5517 176.228 51.855C175.715 51.1583 175.458 50.3333 175.458 49.38C175.458 48.5 175.642 47.7667 176.008 47.18C176.375 46.5567 176.815 46.0433 177.328 45.64C178.392 46.2267 179.602 46.7583 180.958 47.235C182.352 47.675 183.947 47.895 185.743 47.895C186.88 47.895 187.742 47.73 188.328 47.4C188.952 47.07 189.263 46.63 189.263 46.08C189.263 45.5667 189.043 45.1633 188.603 44.87C188.163 44.5767 187.43 44.3383 186.403 44.155L184.753 43.825C181.563 43.2017 179.18 42.23 177.603 40.91C176.063 39.5533 175.293 37.6283 175.293 35.135C175.293 33.7783 175.587 32.55 176.173 31.45C176.76 30.35 177.585 29.4333 178.648 28.7C179.712 27.9667 180.977 27.3983 182.443 26.995C183.947 26.5917 185.597 26.39 187.393 26.39C188.75 26.39 190.015 26.5 191.188 26.72C192.398 26.9033 193.443 27.1967 194.323 27.6C195.203 28.0033 195.9 28.535 196.413 29.195C196.927 29.8183 197.183 30.57 197.183 31.45C197.183 32.2933 197.018 33.0267 196.688 33.65C196.395 34.2367 196.01 34.7317 195.533 35.135C195.24 34.9517 194.8 34.7683 194.213 34.585C193.627 34.365 192.985 34.1817 192.288 34.035C191.592 33.8517 190.877 33.705 190.143 33.595C189.447 33.485 188.805 33.43 188.218 33.43C187.008 33.43 186.073 33.5767 185.413 33.87C184.753 34.1267 184.423 34.5483 184.423 35.135C184.423 35.5383 184.607 35.8683 184.973 36.125C185.34 36.3817 186.037 36.62 187.063 36.84L188.768 37.225C192.288 38.0317 194.782 39.15 196.248 40.58C197.752 41.9733 198.503 43.7883 198.503 46.025ZM229.424 53.945C229.057 54.055 228.47 54.165 227.664 54.275C226.894 54.385 226.087 54.44 225.244 54.44C224.437 54.44 223.704 54.385 223.044 54.275C222.42 54.165 221.889 53.945 221.449 53.615C221.009 53.285 220.66 52.845 220.404 52.295C220.184 51.7083 220.074 50.9567 220.074 50.04V37.83C220.074 36.3267 219.689 35.2817 218.919 34.695C218.185 34.0717 217.269 33.76 216.169 33.76C215.435 33.76 214.739 33.8517 214.079 34.035C213.419 34.2183 212.887 34.4383 212.484 34.695V53.945C212.117 54.055 211.53 54.165 210.724 54.275C209.954 54.385 209.147 54.44 208.304 54.44C207.497 54.44 206.764 54.385 206.104 54.275C205.48 54.165 204.949 53.945 204.509 53.615C204.069 53.285 203.72 52.845 203.464 52.295C203.244 51.7083 203.134 50.9567 203.134 50.04V18.14C203.537 18.0667 204.124 17.975 204.894 17.865C205.7 17.7183 206.507 17.645 207.314 17.645C208.12 17.645 208.835 17.7 209.459 17.81C210.119 17.92 210.669 18.14 211.109 18.47C211.549 18.8 211.879 19.2583 212.099 19.845C212.355 20.395 212.484 21.1283 212.484 22.045V27.435C212.96 27.2517 213.675 27.05 214.629 26.83C215.619 26.5733 216.7 26.445 217.874 26.445C221.504 26.445 224.327 27.3617 226.344 29.195C228.397 30.9917 229.424 33.6867 229.424 37.28V53.945ZM238.678 47.18C238.275 46.2633 237.835 45.2367 237.358 44.1C236.918 42.9633 236.442 41.6617 235.928 40.195C235.452 38.7283 234.938 37.06 234.388 35.19C233.875 33.2833 233.325 31.1017 232.738 28.645C233.252 28.1317 233.93 27.6917 234.773 27.325C235.653 26.9217 236.607 26.72 237.633 26.72C238.917 26.72 239.98 26.995 240.823 27.545C241.667 28.0583 242.29 29.0483 242.693 30.515L247.038 45.64H247.258C247.698 44.3933 248.12 43.0367 248.523 41.57C248.963 40.1033 249.385 38.6 249.788 37.06C250.192 35.4833 250.558 33.925 250.888 32.385C251.255 30.8083 251.567 29.2683 251.823 27.765C253.143 27.0683 254.592 26.72 256.168 26.72C257.452 26.72 258.515 26.995 259.358 27.545C260.202 28.095 260.623 29.0483 260.623 30.405C260.623 31.395 260.495 32.55 260.238 33.87C259.982 35.1533 259.633 36.5283 259.193 37.995C258.79 39.4617 258.295 40.9833 257.708 42.56C257.158 44.1 256.572 45.6217 255.948 47.125C255.325 48.6283 254.683 50.0583 254.023 51.415C253.363 52.735 252.722 53.9267 252.098 54.99C251.072 56.7867 250.118 58.2533 249.238 59.39C248.358 60.5267 247.515 61.4067 246.708 62.03C245.902 62.69 245.095 63.13 244.288 63.35C243.482 63.6067 242.638 63.735 241.758 63.735C240.218 63.735 238.972 63.2767 238.018 62.36C237.065 61.4433 236.497 60.2517 236.313 58.785C237.487 57.8683 238.66 56.8417 239.833 55.705C241.007 54.605 242.07 53.4683 243.023 52.295C242.4 52.1117 241.722 51.69 240.988 51.03C240.292 50.3333 239.522 49.05 238.678 47.18Z" fill="#1890FF"/>
</svg>
