<svg width="75" height="75" viewBox="0 0 75 75" fill="none" xmlns="http://www.w3.org/2000/svg">
<circle cx="37.5" cy="37.5" r="37.5" fill="#1890FF"/>
<path d="M58.6477 52.575C58.6477 54.125 58.3727 55.275 57.8227 56.025C57.2727 56.775 56.3977 57.5 55.1977 58.2C54.4977 58.6 53.6227 59 52.5727 59.4C51.5227 59.75 50.3727 60.05 49.1227 60.3C47.8727 60.6 46.5477 60.825 45.1477 60.975C43.7977 61.125 42.4477 61.2 41.0977 61.2C37.4977 61.2 34.1227 60.725 30.9727 59.775C27.8227 58.775 25.0727 57.3 22.7227 55.35C20.4227 53.35 18.5977 50.875 17.2477 47.925C15.8977 44.975 15.2227 41.55 15.2227 37.65C15.2227 33.55 15.9477 29.975 17.3977 26.925C18.8977 23.875 20.8477 21.35 23.2477 19.35C25.6977 17.3 28.4727 15.775 31.5727 14.775C34.7227 13.775 37.9477 13.275 41.2477 13.275C45.9977 13.275 49.7477 14.05 52.4977 15.6C55.2977 17.1 56.6977 19.075 56.6977 21.525C56.6977 22.825 56.3727 23.95 55.7227 24.9C55.0727 25.85 54.3227 26.6 53.4727 27.15C52.2227 26.4 50.6477 25.675 48.7477 24.975C46.8977 24.225 44.7977 23.85 42.4477 23.85C38.2477 23.85 34.8977 25.05 32.3977 27.45C29.9477 29.85 28.7227 33.175 28.7227 37.425C28.7227 39.725 29.0477 41.725 29.6977 43.425C30.3977 45.075 31.3227 46.45 32.4727 47.55C33.6227 48.6 34.9477 49.4 36.4477 49.95C37.9477 50.45 39.5477 50.7 41.2477 50.7C42.3477 50.7 43.3227 50.6 44.1727 50.4C45.0227 50.2 45.6727 49.975 46.1227 49.725V42.675H38.0977C37.7977 42.125 37.4977 41.4 37.1977 40.5C36.9477 39.6 36.8227 38.65 36.8227 37.65C36.8227 35.85 37.2227 34.55 38.0227 33.75C38.8727 32.95 39.9477 32.55 41.2477 32.55H53.9227C55.4227 32.55 56.5727 32.975 57.3727 33.825C58.2227 34.625 58.6477 35.775 58.6477 37.275V52.575Z" fill="white"/>
</svg>
