<svg width="99" height="75" viewBox="0 0 99 75" xmlns="http://www.w3.org/2000/svg">
<path d="M98.9574 49.9987C98.9574 46.7701 96.637 44.2971 92.7065 42.3626V34.4166C92.7067 34.4027 92.7077 34.3891 92.7077 34.3754C92.7077 33.38 92.4744 32.4512 92.0401 31.5862C96.3746 29.0168 98.9564 25.7119 98.9564 21.875V12.5C98.9564 4.5865 83.6679 0 64.5813 0C45.4946 0 30.2064 4.58634 30.2064 12.4999V21.8749C30.2064 23.3979 30.6153 24.8365 31.377 26.1793C26.6943 28.1872 23.9577 30.8489 23.9576 34.3749H23.9564V43.7499C23.9564 47.3855 26.2755 50.5432 30.2064 53.0505V59.375C30.2064 68.7868 45.7389 75 64.5814 75C83.4239 75 98.9565 68.7868 98.9565 59.375V50.0297C98.9565 50.0193 98.9574 50.0091 98.9574 49.9987ZM92.7073 50H92.7065C92.7065 50.0761 92.6941 50.1536 92.6697 50.2322C92.6691 50.2343 92.6681 50.2365 92.6673 50.2386C92.6557 50.2749 92.6418 50.3114 92.6252 50.3482C92.6204 50.3585 92.6143 50.3692 92.6091 50.3796C92.5953 50.4081 92.5808 50.4367 92.5638 50.4655C92.5548 50.4808 92.544 50.4962 92.5342 50.5116C92.5188 50.5357 92.5036 50.5598 92.486 50.5841C92.4724 50.603 92.4569 50.6219 92.4421 50.641C92.4257 50.6619 92.4097 50.6829 92.3917 50.704C92.3734 50.7255 92.3533 50.7472 92.3334 50.7688C92.3163 50.7876 92.2995 50.8062 92.2812 50.825C92.258 50.8488 92.2332 50.8726 92.2081 50.8966C92.1906 50.9133 92.1734 50.9301 92.155 50.9469C92.127 50.9725 92.0971 50.9983 92.067 51.0241C92.0493 51.0392 92.0319 51.0545 92.0134 51.0696C91.98 51.0971 91.9451 51.1247 91.9094 51.1523C91.892 51.1659 91.8747 51.1793 91.8567 51.1929C91.8178 51.2222 91.7774 51.2515 91.736 51.2808C91.7191 51.2928 91.7023 51.3047 91.6851 51.3168C91.6405 51.3476 91.5944 51.3786 91.5471 51.4096C91.5313 51.4199 91.5154 51.4305 91.4992 51.4408C91.4486 51.4735 91.3964 51.506 91.3428 51.5386C91.3283 51.5475 91.3138 51.5564 91.299 51.5652C91.242 51.5995 91.1834 51.6339 91.1231 51.6682C91.1107 51.6752 91.0982 51.6824 91.0856 51.6894C91.0218 51.7254 90.9563 51.7614 90.8892 51.7974C90.879 51.8029 90.8687 51.8083 90.8585 51.8138C90.7874 51.8516 90.7146 51.8894 90.6397 51.9273C90.6331 51.9306 90.6266 51.9339 90.62 51.9372C90.541 51.977 90.4599 52.017 90.3766 52.0568C90.374 52.0581 90.3713 52.0594 90.3687 52.0607C89.0624 52.6857 87.2512 53.3123 85.0467 53.8836C87.7665 52.3899 89.871 50.6272 91.1794 48.6386C92.2188 49.2712 92.7076 49.7827 92.7076 49.9983C92.7074 49.9992 92.7073 49.9995 92.7073 50ZM30.2064 43.7499V42.0185C30.2196 42.0252 30.2338 42.0318 30.2471 42.0385C30.4186 42.125 30.5932 42.2105 30.7708 42.2949C30.8311 42.3234 30.8933 42.3513 30.9542 42.3797C31.0804 42.4384 31.2074 42.4969 31.3364 42.5546C31.4144 42.5894 31.4938 42.6237 31.5728 42.658C31.69 42.709 31.8079 42.7596 31.9274 42.8097C32.0092 42.844 32.0913 42.878 32.1741 42.9119C32.2994 42.9632 32.4264 43.0139 32.5542 43.0641C32.6313 43.0944 32.7079 43.1251 32.7859 43.1552C32.956 43.2208 33.1287 43.2853 33.303 43.3491C33.3405 43.3628 33.377 43.377 33.4147 43.3907C33.6227 43.4661 33.8342 43.5403 34.0478 43.6134C34.1232 43.6392 34.1998 43.6643 34.2757 43.6898C34.4222 43.739 34.5695 43.7876 34.7186 43.8357C34.8046 43.8635 34.8913 43.8909 34.9783 43.9182C35.1238 43.964 35.2706 44.0093 35.4185 44.0542C35.5039 44.0801 35.5892 44.1061 35.6754 44.1317C35.8442 44.1818 36.0149 44.2309 36.1866 44.2796C36.2516 44.298 36.3157 44.317 36.3812 44.3351C36.6181 44.4013 36.8577 44.4662 37.1 44.5298C37.1548 44.5442 37.2108 44.558 37.2659 44.5724C37.4568 44.6218 37.6489 44.6708 37.8428 44.7187C37.9278 44.7396 38.0135 44.7602 38.0991 44.781C38.2688 44.822 38.4396 44.8625 38.6115 44.9024C38.7011 44.9232 38.791 44.9439 38.8812 44.9644C39.0614 45.0053 39.243 45.0453 39.4256 45.0848C39.5046 45.1019 39.5831 45.1193 39.6626 45.1362C40.1884 45.2479 40.7241 45.3544 41.2693 45.4557C41.3429 45.4693 41.4172 45.4826 41.491 45.496C41.6929 45.5328 41.8957 45.5689 42.1 45.6043C42.1891 45.6198 42.2787 45.635 42.3684 45.6501C42.5663 45.6835 42.7655 45.7163 42.9656 45.7484C43.0511 45.7621 43.1364 45.776 43.2223 45.7894C43.4564 45.8262 43.6921 45.8619 43.9291 45.8967C43.9785 45.904 44.0275 45.9117 44.0771 45.9188C44.3716 45.9616 44.6682 46.0031 44.9671 46.043C45.0047 46.0481 45.0427 46.0526 45.0802 46.0577C45.336 46.0916 45.5934 46.1244 45.8523 46.1561C45.9338 46.1662 46.0159 46.1758 46.0977 46.1856C46.3194 46.2121 46.5422 46.238 46.766 46.2631C46.853 46.2728 46.9398 46.2824 47.0271 46.2919C47.2631 46.3175 47.5004 46.3424 47.7389 46.3664C47.8071 46.3732 47.8749 46.3804 47.9434 46.3871C48.5667 46.4486 49.1978 46.5043 49.8364 46.5542C49.8977 46.5589 49.9595 46.5634 50.021 46.5681C50.2768 46.5876 50.5336 46.6062 50.7916 46.6239C50.8746 46.6296 50.9578 46.6351 51.0411 46.6406C51.2898 46.657 51.5394 46.6725 51.7901 46.6873C51.8658 46.6917 51.9413 46.6963 52.0172 46.7005C52.3184 46.7176 52.6208 46.7335 52.9249 46.748C52.9452 46.7489 52.9654 46.7501 52.9858 46.751C53.3284 46.7672 53.6726 46.7819 54.0185 46.795C54.0329 46.7956 54.0472 46.7959 54.0616 46.7965C54.3766 46.8083 54.6931 46.8185 55.0108 46.8276C55.0821 46.8296 55.1536 46.8315 55.2252 46.8333C55.4937 46.8405 55.7631 46.8467 56.0333 46.8521C56.1111 46.8536 56.1889 46.8551 56.2671 46.8565C56.5533 46.8615 56.8406 46.8655 57.1289 46.8684C57.1805 46.8688 57.2319 46.8696 57.2835 46.8701C57.6318 46.8731 57.9812 46.8752 58.3322 46.8752C58.6838 46.8752 59.0336 46.8733 59.3826 46.8701C59.4292 46.8696 59.4754 46.869 59.5219 46.8685C59.817 46.8655 60.1111 46.8615 60.4042 46.8563C60.4754 46.8551 60.5466 46.8537 60.6175 46.8522C60.898 46.8467 61.1775 46.8402 61.456 46.8327C61.5173 46.831 61.5788 46.8295 61.64 46.8278C62.6636 46.7985 63.6734 46.7556 64.668 46.6992C64.7227 46.6961 64.7774 46.6928 64.832 46.6896C65.1083 46.6734 65.3834 46.6563 65.6573 46.6381C65.7185 46.634 65.7796 46.63 65.8406 46.6259C66.1314 46.6061 66.4209 46.585 66.709 46.5629C66.7397 46.5606 66.7705 46.5583 66.8011 46.556C67.4589 46.5048 68.1091 46.4472 68.7509 46.3839C68.7808 46.381 68.8106 46.3778 68.8405 46.3748C69.1223 46.3467 69.4023 46.3172 69.6809 46.2869C69.7351 46.2809 69.7891 46.275 69.8433 46.2689C70.1096 46.2393 70.3743 46.2086 70.6375 46.1769C70.6816 46.1715 70.726 46.1663 70.77 46.161C71.6971 46.0476 72.6042 45.9211 73.4898 45.7816C73.5314 45.7751 73.5724 45.7684 73.6137 45.7618C73.8666 45.7215 74.1174 45.6802 74.3668 45.6378C74.4127 45.63 74.4588 45.6222 74.5047 45.6143C74.7713 45.5683 75.0357 45.5213 75.298 45.4731C75.3148 45.4701 75.3317 45.467 75.3485 45.464C75.9267 45.357 76.4942 45.2441 77.0505 45.1255C77.0709 45.1211 77.0912 45.1167 77.1117 45.1122C77.3602 45.059 77.6064 45.0045 77.8504 44.9488C77.8916 44.9395 77.9326 44.9301 77.9737 44.9206C78.2079 44.8667 78.4398 44.8116 78.6696 44.7556C78.7009 44.748 78.7323 44.7405 78.7636 44.7329C79.5526 44.539 80.3153 44.3324 81.0501 44.1134C81.0814 44.1041 81.1122 44.0946 81.1435 44.0853C81.3558 44.0215 81.5656 43.9567 81.7731 43.8909C81.8077 43.8799 81.8424 43.869 81.8769 43.858C82.0998 43.7866 82.3201 43.7141 82.5373 43.6404C82.5463 43.6373 82.5554 43.6344 82.5643 43.6314C83.0339 43.4715 83.49 43.3058 83.9322 43.1347C83.9473 43.1289 83.9623 43.1228 83.9774 43.117C84.1751 43.0401 84.3698 42.9621 84.5618 42.8829C84.5934 42.8698 84.625 42.8568 84.6564 42.8437C84.8403 42.7673 85.0215 42.6898 85.1999 42.6112C85.2233 42.6009 85.2471 42.5907 85.2703 42.5804C85.6803 42.3986 86.0762 42.2117 86.4565 42.0191V43.5368L86.402 43.9854C85.8649 48.412 73.5603 53.1243 58.3323 53.1243C57.7536 53.1243 57.1779 53.1178 56.6057 53.1047C56.6052 53.1047 56.6049 53.1047 56.6044 53.1047C56.351 53.0989 56.0986 53.0912 55.8467 53.083C55.7799 53.0807 55.713 53.0786 55.6463 53.0761C55.4803 53.0702 55.3149 53.0632 55.1497 53.0561C55.018 53.0505 54.8861 53.045 54.7551 53.0386C54.7104 53.0365 54.666 53.0339 54.6214 53.0317C50.2104 52.8085 46.1384 52.1983 42.6345 51.34C42.5849 51.3276 42.5346 51.3157 42.4853 51.3034C42.4507 51.2948 42.4168 51.286 42.3823 51.2773C39.6273 50.576 37.1806 49.694 35.1635 48.6634L33.3862 47.7554C31.3532 46.4694 30.2064 45.0828 30.2064 43.7499ZM92.7065 21.8749C92.7065 23.6347 90.7088 25.4882 87.3085 27.0783L87.3018 27.0737L85.7448 27.7115C84.2711 28.3153 82.6406 28.8508 80.8863 29.3116C76.3042 30.494 70.6877 31.2499 64.5814 31.2499C64.5299 31.2499 64.4786 31.2493 64.427 31.2491C64.185 31.2487 63.9438 31.247 63.703 31.2441C63.5751 31.2426 63.4476 31.2406 63.32 31.2385C63.1505 31.2356 62.9814 31.2319 62.8125 31.2279C62.1995 31.2133 61.5918 31.1918 60.9907 31.1623C60.979 31.1617 60.9672 31.1613 60.9555 31.1606C56.2115 30.9261 51.8573 30.2436 48.177 29.2858C44.1708 28.2279 40.8862 26.796 38.7274 25.1197L37.5546 24.209C36.8398 23.4331 36.4564 22.6452 36.4564 21.8752V20.1438C36.4657 20.1485 36.4755 20.1529 36.4848 20.1577C36.6634 20.2478 36.8452 20.3368 37.0304 20.4247C37.0704 20.4436 37.1118 20.4621 37.1519 20.4808C37.299 20.5497 37.4478 20.6179 37.5988 20.6852C37.6647 20.7146 37.7319 20.7435 37.7986 20.7726C37.9287 20.8294 38.0602 20.8857 38.1933 20.9415C38.2652 20.9716 38.3372 21.0015 38.4098 21.0312C38.5476 21.0877 38.6871 21.1434 38.8278 21.1986C38.8938 21.2246 38.9591 21.2508 39.026 21.2764C39.2196 21.3511 39.4157 21.4248 39.6145 21.4972C39.6282 21.5023 39.6414 21.5075 39.6551 21.5123C39.8683 21.5897 40.0849 21.6655 40.304 21.7405C40.3713 21.7635 40.44 21.7859 40.5079 21.8088C40.6625 21.8607 40.8181 21.9121 40.9754 21.9629C41.0562 21.9889 41.1373 22.0147 41.2188 22.0403C41.3706 22.0882 41.5237 22.1354 41.6781 22.1822C41.7585 22.2065 41.8386 22.231 41.9197 22.255C42.0942 22.3067 42.2709 22.3577 42.4487 22.408C42.5088 22.4251 42.5682 22.4425 42.6286 22.4595C42.8668 22.526 43.1074 22.5911 43.3509 22.6552C43.4042 22.6693 43.4587 22.6827 43.5122 22.6966C43.7043 22.7463 43.8977 22.7956 44.093 22.8438C44.1781 22.8649 44.2642 22.8855 44.3499 22.9062C44.5185 22.947 44.6881 22.9873 44.8591 23.0269C44.9507 23.0481 45.0425 23.0694 45.1348 23.0903C45.3106 23.1301 45.4879 23.1691 45.6662 23.2078C45.7499 23.2259 45.8331 23.2444 45.9173 23.2622C46.1651 23.3149 46.4149 23.3664 46.6671 23.4168C46.6804 23.4194 46.6935 23.4223 46.7068 23.4249C46.9725 23.4777 47.241 23.5289 47.5114 23.5791C47.5959 23.5949 47.6814 23.61 47.7664 23.6254C47.9556 23.6597 48.1456 23.6937 48.3369 23.7269C48.4364 23.7441 48.5363 23.761 48.6366 23.778C48.8208 23.8091 49.0059 23.8395 49.192 23.8694C49.2904 23.8852 49.3887 23.9011 49.4876 23.9167C49.6989 23.9498 49.9119 23.982 50.1257 24.0136C50.1976 24.0242 50.2687 24.0352 50.3407 24.0458C50.6257 24.0871 50.9129 24.1272 51.2022 24.166C51.2698 24.175 51.3383 24.1836 51.4062 24.1924C51.6299 24.2219 51.8545 24.2505 52.0807 24.2785C52.183 24.2911 52.286 24.3032 52.3889 24.3155C52.586 24.339 52.7838 24.3621 52.9826 24.3844C53.0906 24.3964 53.1987 24.4085 53.3072 24.4204C53.5132 24.4428 53.7204 24.4643 53.928 24.4854C54.0246 24.4951 54.1208 24.5052 54.2178 24.5148C54.5138 24.544 54.8112 24.5719 55.1106 24.5984C55.1178 24.5991 55.1248 24.5998 55.1318 24.6004C55.4385 24.6274 55.7475 24.6529 56.0577 24.6773C56.1552 24.685 56.2535 24.6921 56.3513 24.6995C56.5671 24.7158 56.7834 24.7316 57.0007 24.7466C57.1142 24.7544 57.2281 24.762 57.342 24.7695C57.5522 24.7832 57.763 24.7963 57.9747 24.8089C58.085 24.8154 58.1952 24.8221 58.3059 24.8282C58.5486 24.8418 58.7922 24.8545 59.0365 24.8664C59.1136 24.8702 59.1903 24.8745 59.2676 24.878C59.5883 24.8931 59.9106 24.9067 60.2344 24.919C60.3126 24.9219 60.3915 24.9244 60.47 24.9271C60.7175 24.936 60.9656 24.9442 61.2146 24.9515C61.3287 24.9549 61.4433 24.9576 61.5579 24.9607C61.7766 24.9663 61.9957 24.9715 62.2156 24.9759C62.3352 24.9784 62.455 24.9807 62.5749 24.9828C62.8027 24.9868 63.0313 24.9898 63.2603 24.9923C63.3664 24.9935 63.4723 24.995 63.5786 24.9959C63.9117 24.9988 64.2458 25.0005 64.5813 25.0005C64.9168 25.0005 65.2508 24.9987 65.5839 24.9959C65.6903 24.995 65.7962 24.9935 65.9022 24.9923C66.1313 24.9897 66.3599 24.9866 66.5877 24.9828C66.7076 24.9808 66.8274 24.9784 66.947 24.9759C67.1669 24.9715 67.386 24.9663 67.6047 24.9607C67.7191 24.9576 67.8337 24.9549 67.948 24.9515C68.1972 24.9442 68.4453 24.936 68.6926 24.9271C68.7711 24.9244 68.8499 24.9219 68.9282 24.919C69.2519 24.9067 69.5741 24.8931 69.8949 24.878C69.9722 24.8743 70.049 24.87 70.1262 24.8662C70.3705 24.8542 70.614 24.8417 70.8565 24.8281C70.9673 24.8218 71.0776 24.8153 71.1881 24.8087C71.3995 24.7962 71.6104 24.7831 71.8204 24.7693C71.9344 24.7619 72.0483 24.7542 72.162 24.7465C72.3793 24.7315 72.5955 24.7156 72.8111 24.6993C72.9091 24.6918 73.0074 24.6848 73.105 24.6772C73.4152 24.6528 73.7242 24.6274 74.0309 24.6003C74.0381 24.5997 74.0451 24.5989 74.0523 24.5983C74.3517 24.5717 74.6491 24.5437 74.9449 24.5147C75.042 24.5051 75.1383 24.495 75.235 24.4852C75.4427 24.4642 75.6496 24.4426 75.8556 24.4202C75.9641 24.4085 76.0723 24.3964 76.1804 24.3842C76.3793 24.3619 76.577 24.3389 76.7742 24.3154C76.877 24.3032 76.98 24.291 77.0824 24.2783C77.3084 24.2505 77.5328 24.2217 77.7564 24.1924C77.8244 24.1834 77.8931 24.175 77.9608 24.1659C78.25 24.1271 78.537 24.0871 78.822 24.0458C78.8944 24.0352 78.9656 24.0242 79.0378 24.0136C79.2513 23.982 79.464 23.9499 79.6752 23.9168C79.7743 23.9013 79.8728 23.8854 79.9713 23.8695C80.1572 23.8396 80.3421 23.8093 80.5261 23.7781C80.6264 23.7612 80.7266 23.7443 80.8263 23.727C81.0175 23.6939 81.2071 23.66 81.3961 23.6257C81.4812 23.6101 81.567 23.595 81.6516 23.5793C81.9219 23.5291 82.1904 23.4778 82.4559 23.425C82.4698 23.4223 82.4832 23.4194 82.497 23.4166C82.7487 23.3664 82.9979 23.3149 83.2453 23.2624C83.3298 23.2444 83.4131 23.2259 83.4972 23.2078C83.6751 23.1691 83.8523 23.1302 84.0277 23.0904C84.1202 23.0695 84.2122 23.0483 84.3039 23.0269C84.4747 22.9874 84.644 22.9471 84.8124 22.9064C84.8983 22.8856 84.9845 22.865 85.0699 22.8438C85.2651 22.7956 85.4583 22.7465 85.6502 22.6967C85.7038 22.6828 85.7582 22.6694 85.8116 22.6554C86.055 22.5914 86.2958 22.5261 86.5338 22.4598C86.5946 22.4428 86.6542 22.4253 86.7147 22.408C86.8921 22.3577 87.0684 22.307 87.2426 22.2553C87.324 22.2312 87.4042 22.2068 87.4848 22.1824C87.6389 22.1357 87.7919 22.0885 87.9435 22.0408C88.0249 22.0151 88.1063 21.9893 88.187 21.9634C88.3443 21.9127 88.4998 21.8613 88.6542 21.8094C88.7223 21.7865 88.7911 21.7641 88.8585 21.7409C89.0775 21.666 89.2942 21.5902 89.5072 21.513C89.5214 21.5078 89.5351 21.5024 89.5493 21.4972C89.7477 21.4249 89.9433 21.3514 90.1363 21.2771C90.2033 21.2513 90.2689 21.225 90.3351 21.1989C90.4755 21.1437 90.6148 21.0881 90.7523 21.0318C90.8251 21.0021 90.8974 20.972 90.9693 20.9418C91.1022 20.8861 91.2333 20.83 91.3633 20.7734C91.4303 20.7442 91.4974 20.7151 91.5636 20.6856C91.7147 20.6183 91.8631 20.5501 92.0101 20.4815C92.0504 20.4625 92.0919 20.4441 92.1319 20.4252C92.3171 20.3374 92.4988 20.2483 92.6774 20.1583C92.6867 20.1535 92.6966 20.149 92.7059 20.1442V21.8749H92.7065ZM64.5814 6.24986C80.0144 6.24986 92.7065 10.0574 92.7065 12.4999C92.7065 14.9424 80.0144 18.7499 64.5814 18.7499C49.1485 18.7499 36.4564 14.9424 36.4564 12.4999C36.4564 10.0574 49.1485 6.24986 64.5814 6.24986ZM31.4649 33.202C32.5739 32.4453 34.1964 31.7025 36.2347 31.0323C42.0596 34.8437 51.5693 37.1868 62.3625 37.4699C62.4095 37.4711 62.4565 37.4723 62.5035 37.4735C62.7682 37.4801 63.0339 37.4853 63.3002 37.4892C63.3992 37.4908 63.4981 37.4926 63.5973 37.4938C63.8513 37.4967 64.1063 37.4981 64.3616 37.4989C64.4354 37.499 64.5088 37.5004 64.5827 37.5004C64.864 37.5004 65.1446 37.4986 65.4248 37.4957C65.5008 37.4949 65.5763 37.4935 65.6522 37.4924C65.8328 37.4902 66.0133 37.4876 66.1934 37.4841C66.369 37.4807 66.5439 37.4764 66.7189 37.472C66.7796 37.4705 66.8404 37.4689 66.9011 37.4673C74.2334 37.2662 80.9699 36.1143 86.3546 34.1964C86.4252 34.2869 86.4574 34.3487 86.4576 34.3751H86.4565C86.4565 36.8175 73.7644 40.6251 58.3314 40.6251C50.3744 40.6251 43.146 39.613 38.01 38.2975C33.1854 37.0617 30.2076 35.5584 30.2076 34.3754C30.2076 34.2826 30.5128 33.8515 31.4649 33.202ZM92.7065 59.375C92.7065 63.7698 80.2567 68.75 64.5814 68.75C48.9062 68.75 36.4564 63.7698 36.4564 59.375V57.6436C42.6602 60.7852 52.9107 62.5 64.5814 62.5C65.4744 62.5 66.358 62.4887 67.2331 62.4687C67.2385 62.4685 67.2438 62.4684 67.249 62.4684C68.6975 62.4351 70.1198 62.3749 71.5109 62.2879C71.528 62.2868 71.5451 62.2857 71.5622 62.2847C71.8334 62.2676 72.1034 62.2496 72.3723 62.2305C72.3773 62.2302 72.3822 62.2297 72.3872 62.2294C73.4828 62.1515 74.5577 62.0566 75.6095 61.9455C75.6282 61.9435 75.6471 61.9415 75.6659 61.9395C75.9116 61.9134 76.1559 61.8863 76.3989 61.8583C76.4319 61.8545 76.4649 61.8507 76.4978 61.8469C77.5237 61.7279 78.5263 61.5931 79.5027 61.4424C79.5143 61.4406 79.5261 61.4389 79.5377 61.437C79.7597 61.4027 79.9797 61.3673 80.199 61.3313C80.2461 61.3235 80.2931 61.3159 80.3401 61.3081C80.5522 61.2729 80.7631 61.237 80.9725 61.2002C81.0137 61.1931 81.0544 61.1856 81.0955 61.1784C82.0024 61.0176 82.8841 60.8426 83.7384 60.6537C83.7932 60.6416 83.8481 60.6296 83.9026 60.6173C84.0844 60.5766 84.2646 60.5351 84.4437 60.4931C84.5069 60.4783 84.5697 60.4634 84.6326 60.4484C84.8111 60.4059 84.989 60.363 85.165 60.3192C85.2097 60.308 85.2538 60.2966 85.2982 60.2855C85.8744 60.1404 86.436 59.9885 86.9829 59.8298C87.0423 59.8126 87.1022 59.7957 87.1613 59.7783C87.3139 59.7334 87.4646 59.6876 87.6148 59.6415C87.6889 59.6188 87.7629 59.5961 87.8363 59.5732C87.9815 59.5279 88.1258 59.4821 88.2686 59.4359C88.3411 59.4124 88.4128 59.3884 88.4847 59.3646C88.6292 59.3168 88.7737 59.2691 88.9156 59.2202C88.9563 59.2062 88.996 59.1919 89.0364 59.1778C89.3297 59.0759 89.617 58.9717 89.8993 58.8653C89.9616 58.8418 90.0248 58.8188 90.0864 58.7951C90.21 58.7477 90.3313 58.6995 90.4526 58.6512C90.5326 58.6195 90.6125 58.5878 90.6916 58.5556C90.8072 58.5086 90.9215 58.461 91.035 58.4132C91.117 58.3787 91.1982 58.3438 91.279 58.3088C91.3889 58.2614 91.4986 58.2138 91.6065 58.1656C91.6887 58.1288 91.7692 58.0914 91.85 58.0542C92.0189 57.9765 92.1854 57.8979 92.3491 57.8184C92.4497 57.7696 92.5512 57.7209 92.6497 57.6713C92.6682 57.662 92.6876 57.653 92.706 57.6437V59.375H92.7065Z"/>
<path d="M16.5621 28.5558C16.0536 29.0718 15.3434 29.3407 14.62 29.2905C13.9207 29.3429 13.239 29.0718 12.7655 28.5558L0.746398 16.6109C-0.248799 15.6182 -0.248799 14.0089 0.746398 13.0162C1.74159 12.0236 3.35495 12.0236 4.35015 13.0162L12.1188 20.7652L12.1188 2.53848C12.1101 1.14349 13.2368 0.00650086 14.6353 -5.87997e-05C14.6397 -5.88001e-05 14.6441 -5.88005e-05 14.6507 -5.88011e-05C16.0536 0.00868712 17.1891 1.13911 17.1956 2.53848L17.1956 20.7631L24.9468 13.0162C25.942 12.0236 27.5553 12.0236 28.5505 13.0162C29.5457 14.0089 29.5457 15.6182 28.5505 16.6109L16.5621 28.5558Z"/>
</svg>
