<svg width="228" height="85" viewBox="0 0 228 85" fill="none" xmlns="http://www.w3.org/2000/svg">
<circle cx="30" cy="43" r="30" fill="#47C8FA"/>
<path d="M83.9217 31.95C85.8217 31.95 87.5383 32.2 89.0717 32.7C90.6383 33.1667 91.955 33.7833 93.0217 34.55C93.6883 35.0167 94.205 35.5333 94.5717 36.1C94.9717 36.6667 95.1717 37.4 95.1717 38.3V55.8C95.1717 57.5667 94.8383 59.0833 94.1717 60.35C93.505 61.65 92.5883 62.7167 91.4217 63.55C90.2883 64.4167 88.9383 65.05 87.3717 65.45C85.8383 65.85 84.1883 66.05 82.4217 66.05C79.3883 66.05 77.005 65.6333 75.2717 64.8C73.5383 64 72.6717 62.6833 72.6717 60.85C72.6717 60.0833 72.8217 59.4 73.1217 58.8C73.455 58.2333 73.8217 57.8 74.2217 57.5C75.1883 58.0333 76.2717 58.4833 77.4717 58.85C78.705 59.2167 79.9717 59.4 81.2717 59.4C83.0717 59.4 84.505 59.1 85.5717 58.5C86.6383 57.9 87.1717 56.9333 87.1717 55.6V54.8C85.805 55.4 84.1383 55.7 82.1717 55.7C80.6717 55.7 79.2383 55.4833 77.8717 55.05C76.5383 54.5833 75.355 53.8833 74.3217 52.95C73.3217 51.9833 72.505 50.75 71.8717 49.25C71.2717 47.75 70.9717 45.9667 70.9717 43.9C70.9717 41.8667 71.2883 40.1 71.9217 38.6C72.5883 37.1 73.4883 35.8667 74.6217 34.9C75.7883 33.9 77.155 33.1667 78.7217 32.7C80.3217 32.2 82.055 31.95 83.9217 31.95ZM87.0217 39.2C86.7883 39.0667 86.4383 38.9333 85.9717 38.8C85.5383 38.6667 84.9883 38.6 84.3217 38.6C82.6883 38.6 81.455 39.0667 80.6217 40C79.8217 40.9 79.4217 42.2 79.4217 43.9C79.4217 45.8333 79.8217 47.2333 80.6217 48.1C81.455 48.9333 82.505 49.35 83.7717 49.35C85.1383 49.35 86.2217 49.0333 87.0217 48.4V39.2ZM108.941 56.95C108.607 57.05 108.074 57.15 107.341 57.25C106.641 57.35 105.907 57.4 105.141 57.4C104.407 57.4 103.741 57.35 103.141 57.25C102.574 57.15 102.091 56.95 101.691 56.65C101.291 56.35 100.974 55.95 100.741 55.45C100.541 54.9167 100.441 54.2333 100.441 53.4V38.4C100.441 37.6333 100.574 36.9833 100.841 36.45C101.141 35.8833 101.557 35.3833 102.091 34.95C102.624 34.5167 103.274 34.1333 104.041 33.8C104.841 33.4333 105.691 33.1167 106.591 32.85C107.491 32.5833 108.424 32.3833 109.391 32.25C110.357 32.0833 111.324 32 112.291 32C113.891 32 115.157 32.3167 116.091 32.95C117.024 33.55 117.491 34.55 117.491 35.95C117.491 36.4167 117.424 36.8833 117.291 37.35C117.157 37.7833 116.991 38.1833 116.791 38.55C116.091 38.55 115.374 38.5833 114.641 38.65C113.907 38.7167 113.191 38.8167 112.491 38.95C111.791 39.0833 111.124 39.2333 110.491 39.4C109.891 39.5333 109.374 39.7 108.941 39.9V56.95ZM145.22 44.85C145.22 46.9167 144.903 48.7667 144.27 50.4C143.636 52 142.736 53.35 141.57 54.45C140.436 55.55 139.07 56.3833 137.47 56.95C135.87 57.5167 134.086 57.8 132.12 57.8C130.153 57.8 128.37 57.5 126.77 56.9C125.17 56.3 123.786 55.45 122.62 54.35C121.486 53.2167 120.603 51.85 119.97 50.25C119.336 48.65 119.02 46.85 119.02 44.85C119.02 42.8833 119.336 41.1 119.97 39.5C120.603 37.9 121.486 36.55 122.62 35.45C123.786 34.3167 125.17 33.45 126.77 32.85C128.37 32.25 130.153 31.95 132.12 31.95C134.086 31.95 135.87 32.2667 137.47 32.9C139.07 33.5 140.436 34.3667 141.57 35.5C142.736 36.6 143.636 37.95 144.27 39.55C144.903 41.15 145.22 42.9167 145.22 44.85ZM127.72 44.85C127.72 46.8833 128.103 48.45 128.87 49.55C129.67 50.6167 130.77 51.15 132.17 51.15C133.57 51.15 134.636 50.6 135.37 49.5C136.136 48.4 136.52 46.85 136.52 44.85C136.52 42.85 136.136 41.3167 135.37 40.25C134.603 39.15 133.52 38.6 132.12 38.6C130.72 38.6 129.636 39.15 128.87 40.25C128.103 41.3167 127.72 42.85 127.72 44.85ZM169.867 49.75C169.867 52.2833 168.917 54.2667 167.017 55.7C165.117 57.1333 162.317 57.85 158.617 57.85C157.217 57.85 155.917 57.75 154.717 57.55C153.517 57.35 152.483 57.05 151.617 56.65C150.783 56.2167 150.117 55.6833 149.617 55.05C149.15 54.4167 148.917 53.6667 148.917 52.8C148.917 52 149.083 51.3333 149.417 50.8C149.75 50.2333 150.15 49.7667 150.617 49.4C151.583 49.9333 152.683 50.4167 153.917 50.85C155.183 51.25 156.633 51.45 158.267 51.45C159.3 51.45 160.083 51.3 160.617 51C161.183 50.7 161.467 50.3 161.467 49.8C161.467 49.3333 161.267 48.9667 160.867 48.7C160.467 48.4333 159.8 48.2167 158.867 48.05L157.367 47.75C154.467 47.1833 152.3 46.3 150.867 45.1C149.467 43.8667 148.767 42.1167 148.767 39.85C148.767 38.6167 149.033 37.5 149.567 36.5C150.1 35.5 150.85 34.6667 151.817 34C152.783 33.3333 153.933 32.8167 155.267 32.45C156.633 32.0833 158.133 31.9 159.767 31.9C161 31.9 162.15 32 163.217 32.2C164.317 32.3667 165.267 32.6333 166.067 33C166.867 33.3667 167.5 33.85 167.967 34.45C168.433 35.0167 168.667 35.7 168.667 36.5C168.667 37.2667 168.517 37.9333 168.217 38.5C167.95 39.0333 167.6 39.4833 167.167 39.85C166.9 39.6833 166.5 39.5167 165.967 39.35C165.433 39.15 164.85 38.9833 164.217 38.85C163.583 38.6833 162.933 38.55 162.267 38.45C161.633 38.35 161.05 38.3 160.517 38.3C159.417 38.3 158.567 38.4333 157.967 38.7C157.367 38.9333 157.067 39.3167 157.067 39.85C157.067 40.2167 157.233 40.5167 157.567 40.75C157.9 40.9833 158.533 41.2 159.467 41.4L161.017 41.75C164.217 42.4833 166.483 43.5 167.817 44.8C169.183 46.0667 169.867 47.7167 169.867 49.75ZM197.976 56.95C197.643 57.05 197.109 57.15 196.376 57.25C195.676 57.35 194.943 57.4 194.176 57.4C193.443 57.4 192.776 57.35 192.176 57.25C191.609 57.15 191.126 56.95 190.726 56.65C190.326 56.35 190.009 55.95 189.776 55.45C189.576 54.9167 189.476 54.2333 189.476 53.4V42.3C189.476 40.9333 189.126 39.9833 188.426 39.45C187.759 38.8833 186.926 38.6 185.926 38.6C185.259 38.6 184.626 38.6833 184.026 38.85C183.426 39.0167 182.943 39.2167 182.576 39.45V56.95C182.243 57.05 181.709 57.15 180.976 57.25C180.276 57.35 179.543 57.4 178.776 57.4C178.043 57.4 177.376 57.35 176.776 57.25C176.209 57.15 175.726 56.95 175.326 56.65C174.926 56.35 174.609 55.95 174.376 55.45C174.176 54.9167 174.076 54.2333 174.076 53.4V24.4C174.443 24.3333 174.976 24.25 175.676 24.15C176.409 24.0167 177.143 23.95 177.876 23.95C178.609 23.95 179.259 24 179.826 24.1C180.426 24.2 180.926 24.4 181.326 24.7C181.726 25 182.026 25.4167 182.226 25.95C182.459 26.45 182.576 27.1167 182.576 27.95V32.85C183.009 32.6833 183.659 32.5 184.526 32.3C185.426 32.0667 186.409 31.95 187.476 31.95C190.776 31.95 193.343 32.7833 195.176 34.45C197.043 36.0833 197.976 38.5333 197.976 41.8V56.95ZM206.389 50.8C206.023 49.9667 205.623 49.0333 205.189 48C204.789 46.9667 204.356 45.7833 203.889 44.45C203.456 43.1167 202.989 41.6 202.489 39.9C202.023 38.1667 201.523 36.1833 200.989 33.95C201.456 33.4833 202.073 33.0833 202.839 32.75C203.639 32.3833 204.506 32.2 205.439 32.2C206.606 32.2 207.573 32.45 208.339 32.95C209.106 33.4167 209.673 34.3167 210.039 35.65L213.989 49.4H214.189C214.589 48.2667 214.973 47.0333 215.339 45.7C215.739 44.3667 216.123 43 216.489 41.6C216.856 40.1667 217.189 38.75 217.489 37.35C217.823 35.9167 218.106 34.5167 218.339 33.15C219.539 32.5167 220.856 32.2 222.289 32.2C223.456 32.2 224.423 32.45 225.189 32.95C225.956 33.45 226.339 34.3167 226.339 35.55C226.339 36.45 226.223 37.5 225.989 38.7C225.756 39.8667 225.439 41.1167 225.039 42.45C224.673 43.7833 224.223 45.1667 223.689 46.6C223.189 48 222.656 49.3833 222.089 50.75C221.523 52.1167 220.939 53.4167 220.339 54.65C219.739 55.85 219.156 56.9333 218.589 57.9C217.656 59.5333 216.789 60.8667 215.989 61.9C215.189 62.9333 214.423 63.7333 213.689 64.3C212.956 64.9 212.223 65.3 211.489 65.5C210.756 65.7333 209.989 65.85 209.189 65.85C207.789 65.85 206.656 65.4333 205.789 64.6C204.923 63.7667 204.406 62.6833 204.239 61.35C205.306 60.5167 206.373 59.5833 207.439 58.55C208.506 57.55 209.473 56.5167 210.339 55.45C209.773 55.2833 209.156 54.9 208.489 54.3C207.856 53.6667 207.156 52.5 206.389 50.8Z" fill="#47C8FA"/>
<path d="M46.9181 55.06C46.9181 56.3 46.6981 57.22 46.2581 57.82C45.8181 58.42 45.1181 59 44.1581 59.56C43.5981 59.88 42.8981 60.2 42.0581 60.52C41.2181 60.8 40.2981 61.04 39.2981 61.24C38.2981 61.48 37.2381 61.66 36.1181 61.78C35.0381 61.9 33.9581 61.96 32.8781 61.96C29.9981 61.96 27.2981 61.58 24.7781 60.82C22.2581 60.02 20.0581 58.84 18.1781 57.28C16.3381 55.68 14.8781 53.7 13.7981 51.34C12.7181 48.98 12.1781 46.24 12.1781 43.12C12.1781 39.84 12.7581 36.98 13.9181 34.54C15.1181 32.1 16.6781 30.08 18.5981 28.48C20.5581 26.84 22.7781 25.62 25.2581 24.82C27.7781 24.02 30.3581 23.62 32.9981 23.62C36.7981 23.62 39.7981 24.24 41.9981 25.48C44.2381 26.68 45.3581 28.26 45.3581 30.22C45.3581 31.26 45.0981 32.16 44.5781 32.92C44.0581 33.68 43.4581 34.28 42.7781 34.72C41.7781 34.12 40.5181 33.54 38.9981 32.98C37.5181 32.38 35.8381 32.08 33.9581 32.08C30.5981 32.08 27.9181 33.04 25.9181 34.96C23.9581 36.88 22.9781 39.54 22.9781 42.94C22.9781 44.78 23.2381 46.38 23.7581 47.74C24.3181 49.06 25.0581 50.16 25.9781 51.04C26.8981 51.88 27.9581 52.52 29.1581 52.96C30.3581 53.36 31.6381 53.56 32.9981 53.56C33.8781 53.56 34.6581 53.48 35.3381 53.32C36.0181 53.16 36.5381 52.98 36.8981 52.78V47.14H30.4781C30.2381 46.7 29.9981 46.12 29.7581 45.4C29.5581 44.68 29.4581 43.92 29.4581 43.12C29.4581 41.68 29.7781 40.64 30.4181 40C31.0981 39.36 31.9581 39.04 32.9981 39.04H43.1381C44.3381 39.04 45.2581 39.38 45.8981 40.06C46.5781 40.7 46.9181 41.62 46.9181 42.82V55.06Z" fill="white"/>
</svg>
