<svg width="60" height="60" viewBox="0 0 60 60" fill="none" xmlns="http://www.w3.org/2000/svg">
<circle cx="30" cy="30" r="30" fill="#47C8FA"/>
<path d="M46.9181 42.06C46.9181 43.3 46.6981 44.22 46.2581 44.82C45.8181 45.42 45.1181 46 44.1581 46.56C43.5981 46.88 42.8981 47.2 42.0581 47.52C41.2181 47.8 40.2981 48.04 39.2981 48.24C38.2981 48.48 37.2381 48.66 36.1181 48.78C35.0381 48.9 33.9581 48.96 32.8781 48.96C29.9981 48.96 27.2981 48.58 24.7781 47.82C22.2581 47.02 20.0581 45.84 18.1781 44.28C16.3381 42.68 14.8781 40.7 13.7981 38.34C12.7181 35.98 12.1781 33.24 12.1781 30.12C12.1781 26.84 12.7581 23.98 13.9181 21.54C15.1181 19.1 16.6781 17.08 18.5981 15.48C20.5581 13.84 22.7781 12.62 25.2581 11.82C27.7781 11.02 30.3581 10.62 32.9981 10.62C36.7981 10.62 39.7981 11.24 41.9981 12.48C44.2381 13.68 45.3581 15.26 45.3581 17.22C45.3581 18.26 45.0981 19.16 44.5781 19.92C44.0581 20.68 43.4581 21.28 42.7781 21.72C41.7781 21.12 40.5181 20.54 38.9981 19.98C37.5181 19.38 35.8381 19.08 33.9581 19.08C30.5981 19.08 27.9181 20.04 25.9181 21.96C23.9581 23.88 22.9781 26.54 22.9781 29.94C22.9781 31.78 23.2381 33.38 23.7581 34.74C24.3181 36.06 25.0581 37.16 25.9781 38.04C26.8981 38.88 27.9581 39.52 29.1581 39.96C30.3581 40.36 31.6381 40.56 32.9981 40.56C33.8781 40.56 34.6581 40.48 35.3381 40.32C36.0181 40.16 36.5381 39.98 36.8981 39.78V34.14H30.4781C30.2381 33.7 29.9981 33.12 29.7581 32.4C29.5581 31.68 29.4581 30.92 29.4581 30.12C29.4581 28.68 29.7781 27.64 30.4181 27C31.0981 26.36 31.9581 26.04 32.9981 26.04H43.1381C44.3381 26.04 45.2581 26.38 45.8981 27.06C46.5781 27.7 46.9181 28.62 46.9181 29.82V42.06Z" fill="white"/>
</svg>
