<svg display="none" xmlns="http://www.w3.org/2000/svg">
  <symbol viewBox="0 0 150 100" id="expense">
      <path d="M131.943 66.665C131.943 62.3602 128.849 59.0628 123.609 56.4835V45.8888C123.609 45.8703 123.61 45.8521 123.61 45.8338C123.61 44.5067 123.299 43.2683 122.72 42.115C128.499 38.689 131.942 34.2825 131.942 29.1667V16.6667C131.942 6.11533 111.557 0 86.1084 0C60.6595 0 40.2752 6.11512 40.2752 16.6665V29.1665C40.2752 31.1972 40.8204 33.1153 41.8361 34.9057C35.5924 37.5829 31.9437 41.1319 31.9435 45.8332H31.9418V58.3332C31.9418 63.1807 35.0341 67.3909 40.2752 70.734V79.1666C40.2752 91.7157 60.9853 100 86.1086 100C111.232 100 131.942 91.7157 131.942 79.1666V66.7063C131.942 66.6924 131.943 66.6788 131.943 66.665ZM123.61 66.6666H123.609C123.609 66.7681 123.592 66.8715 123.56 66.9762C123.559 66.9791 123.557 66.9819 123.556 66.9848C123.541 67.0332 123.522 67.0818 123.5 67.1309C123.494 67.1447 123.486 67.1589 123.479 67.1728C123.46 67.2108 123.441 67.2489 123.418 67.2873C123.406 67.3077 123.392 67.3282 123.379 67.3488C123.358 67.3809 123.338 67.4131 123.315 67.4454C123.297 67.4706 123.276 67.4959 123.256 67.5213C123.234 67.5492 123.213 67.5772 123.189 67.6053C123.165 67.634 123.138 67.6629 123.111 67.6918C123.088 67.7168 123.066 67.7416 123.042 67.7667C123.011 67.7984 122.978 67.8301 122.944 67.8621C122.921 67.8845 122.898 67.9068 122.873 67.9292C122.836 67.9634 122.796 67.9978 122.756 68.0322C122.732 68.0523 122.709 68.0726 122.685 68.0928C122.64 68.1294 122.593 68.1662 122.546 68.2031C122.523 68.2212 122.5 68.2391 122.476 68.2572C122.424 68.2962 122.37 68.3353 122.315 68.3744C122.292 68.3904 122.27 68.4063 122.247 68.4224C122.187 68.4635 122.126 68.5048 122.063 68.5461C122.042 68.5599 122.021 68.574 121.999 68.5878C121.931 68.6313 121.862 68.6747 121.79 68.7182C121.771 68.73 121.752 68.7418 121.732 68.7536C121.656 68.7994 121.578 68.8452 121.497 68.8909C121.481 68.9003 121.464 68.9098 121.447 68.9192C121.362 68.9672 121.275 69.0152 121.186 69.0633C121.172 69.0706 121.158 69.0777 121.145 69.085C121.05 69.1355 120.953 69.1859 120.853 69.2364C120.844 69.2409 120.835 69.2451 120.827 69.2496C120.721 69.3027 120.613 69.356 120.502 69.4091C120.499 69.4107 120.495 69.4126 120.492 69.4142C118.75 70.2475 116.335 71.0831 113.396 71.8448C117.022 69.8533 119.828 67.503 121.573 64.8514C122.958 65.6949 123.61 66.3769 123.61 66.6644C123.61 66.6656 123.61 66.666 123.61 66.6666ZM40.2752 58.3332V56.0247C40.2929 56.0336 40.3118 56.0424 40.3295 56.0513C40.5582 56.1667 40.7909 56.2806 41.0277 56.3931C41.1081 56.4312 41.1911 56.4684 41.2723 56.5063C41.4406 56.5846 41.6098 56.6625 41.7819 56.7394C41.8859 56.7858 41.9917 56.8316 42.0971 56.8774C42.2533 56.9453 42.4106 57.0129 42.5699 57.0796C42.679 57.1254 42.7884 57.1707 42.8989 57.2159C43.0659 57.2843 43.2352 57.3518 43.4057 57.4187C43.5084 57.4592 43.6106 57.5001 43.7145 57.5402C43.9414 57.6277 44.1717 57.7137 44.404 57.7988C44.4541 57.8171 44.5027 57.836 44.5529 57.8543C44.8302 57.9548 45.1122 58.0537 45.3971 58.1512C45.4976 58.1855 45.5997 58.2191 45.701 58.2531C45.8963 58.3186 46.0927 58.3835 46.2914 58.4476C46.4062 58.4846 46.5217 58.5212 46.6377 58.5577C46.8318 58.6187 47.0275 58.6791 47.2247 58.7389C47.3386 58.7735 47.4523 58.8081 47.5673 58.8423C47.7923 58.909 48.02 58.9745 48.2488 59.0394C48.3355 59.064 48.421 59.0893 48.5082 59.1135C48.8242 59.2018 49.1436 59.2883 49.4667 59.3731C49.5397 59.3922 49.6144 59.4107 49.6878 59.4299C49.9424 59.4958 50.1985 59.5611 50.4571 59.625C50.5704 59.6528 50.6848 59.6803 50.7989 59.708C51.0251 59.7627 51.2528 59.8166 51.4821 59.8699C51.6015 59.8976 51.7213 59.9253 51.8416 59.9525C52.0818 60.007 52.324 60.0603 52.5675 60.113C52.6729 60.1358 52.7774 60.159 52.8834 60.1816C53.5845 60.3305 54.2989 60.4725 55.0258 60.6076C55.1238 60.6257 55.2229 60.6434 55.3214 60.6613C55.5906 60.7104 55.8609 60.7586 56.1334 60.8058C56.2522 60.8263 56.3716 60.8467 56.4912 60.8668C56.7551 60.9114 57.0206 60.9551 57.2875 60.9978C57.4015 61.0162 57.5152 61.0347 57.6298 61.0526C57.9418 61.1016 58.2562 61.1492 58.5721 61.1956C58.6381 61.2054 58.7034 61.2155 58.7695 61.2251C59.1621 61.2821 59.5577 61.3374 59.9562 61.3907C60.0063 61.3974 60.0569 61.4035 60.107 61.4102C60.448 61.4554 60.7912 61.4991 61.1364 61.5415C61.2451 61.5549 61.3545 61.5677 61.4636 61.5807C61.7592 61.6161 62.0562 61.6507 62.3547 61.6841C62.4707 61.6971 62.5864 61.7099 62.7028 61.7225C63.0175 61.7567 63.3339 61.7899 63.6519 61.8218C63.7428 61.831 63.8332 61.8405 63.9245 61.8495C64.7556 61.9315 65.5971 62.0057 66.4485 62.0723C66.5303 62.0786 66.6127 62.0845 66.6947 62.0908C67.0357 62.1168 67.3781 62.1416 67.7221 62.1652C67.8328 62.1728 67.9437 62.1801 68.0548 62.1874C68.3864 62.2094 68.7193 62.2299 69.0535 62.2497C69.1544 62.2556 69.2551 62.2617 69.3563 62.2674C69.7579 62.2902 70.1611 62.3113 70.5666 62.3307C70.5936 62.3319 70.6205 62.3335 70.6478 62.3347C71.1045 62.3563 71.5635 62.3758 72.0247 62.3933C72.0438 62.3941 72.063 62.3945 72.0821 62.3953C72.5022 62.411 72.9242 62.4246 73.3478 62.4369C73.4428 62.4395 73.5382 62.4419 73.6336 62.4444C73.9917 62.4539 74.3508 62.4623 74.7111 62.4694C74.8148 62.4714 74.9186 62.4735 75.0228 62.4753C75.4044 62.482 75.7875 62.4873 76.1719 62.4912C76.2406 62.4918 76.3092 62.4928 76.378 62.4934C76.8424 62.4975 77.3083 62.5003 77.7763 62.5003C78.245 62.5003 78.7115 62.4977 79.1768 62.4934C79.2389 62.4928 79.3005 62.492 79.3626 62.4914C79.7561 62.4873 80.1481 62.482 80.5389 62.4751C80.6339 62.4735 80.7288 62.4716 80.8234 62.4696C81.1973 62.4623 81.57 62.4535 81.9413 62.4436C82.0231 62.4413 82.1051 62.4393 82.1867 62.4371C83.5514 62.398 84.8979 62.3408 86.224 62.2655C86.297 62.2615 86.3698 62.257 86.4427 62.2527C86.8111 62.2312 87.1779 62.2084 87.5431 62.1842C87.6247 62.1787 87.7061 62.1734 87.7875 62.1679C88.1753 62.1414 88.5612 62.1134 88.9453 62.0839C88.9862 62.0808 89.0273 62.0778 89.0682 62.0747C89.9453 62.0064 90.8122 61.9296 91.6679 61.8452C91.7078 61.8413 91.7475 61.8371 91.7873 61.833C92.1631 61.7956 92.5364 61.7563 92.9079 61.7158C92.9802 61.7079 93.0522 61.7 93.1244 61.6918C93.4794 61.6523 93.8324 61.6115 94.1834 61.5691C94.2422 61.562 94.3014 61.5551 94.36 61.548C95.5961 61.3968 96.8057 61.2282 97.9865 61.0422C98.0418 61.0334 98.0965 61.0245 98.1517 61.0157C98.4888 60.962 98.8233 60.9069 99.1557 60.8503C99.217 60.84 99.2784 60.8296 99.3396 60.819C99.6951 60.7578 100.048 60.6951 100.397 60.6308C100.42 60.6267 100.442 60.6227 100.465 60.6186C101.236 60.476 101.992 60.3254 102.734 60.1674C102.761 60.1615 102.788 60.1556 102.816 60.1497C103.147 60.0787 103.475 60.006 103.801 59.9318C103.855 59.9193 103.91 59.9067 103.965 59.8941C104.277 59.8223 104.586 59.7489 104.893 59.6742C104.935 59.664 104.976 59.6541 105.018 59.6439C106.07 59.3853 107.087 59.1098 108.067 58.8179C108.109 58.8055 108.15 58.7928 108.191 58.7804C108.474 58.6954 108.754 58.6089 109.031 58.5212C109.077 58.5066 109.123 58.4919 109.169 58.4773C109.466 58.3821 109.76 58.2854 110.05 58.1872C110.062 58.1831 110.074 58.1792 110.086 58.1752C110.712 57.962 111.32 57.741 111.91 57.5129C111.93 57.5052 111.95 57.4971 111.97 57.4893C112.234 57.3868 112.493 57.2828 112.749 57.1772C112.791 57.1597 112.833 57.1424 112.875 57.125C113.12 57.023 113.362 56.9197 113.6 56.8149C113.631 56.8013 113.663 56.7876 113.694 56.7738C114.24 56.5315 114.768 56.2823 115.275 56.0255V58.049L115.203 58.6472C114.487 64.5493 98.0805 70.8325 77.7765 70.8325C77.0048 70.8325 76.2372 70.8237 75.4742 70.8062C75.4736 70.8062 75.4732 70.8062 75.4726 70.8062C75.1347 70.7985 74.7982 70.7883 74.4623 70.7773C74.3732 70.7743 74.284 70.7714 74.1951 70.7682C73.9738 70.7602 73.7532 70.7509 73.5329 70.7415C73.3573 70.734 73.1815 70.7267 73.0068 70.7181C72.9472 70.7153 72.888 70.7118 72.8286 70.709C66.9472 70.4113 61.5179 69.5977 56.8461 68.4533C56.7799 68.4368 56.7128 68.421 56.6471 68.4045C56.6009 68.3931 56.5557 68.3813 56.5098 68.3697C52.8364 67.4346 49.5741 66.2587 46.8847 64.8846L44.5149 63.6738C41.8043 61.9591 40.2752 60.1104 40.2752 58.3332ZM123.609 29.1665C123.609 31.5129 120.945 33.9842 116.411 36.1044L116.402 36.0983L114.326 36.9487C112.362 37.7538 110.187 38.4677 107.848 39.0821C101.739 40.6587 94.2503 41.6665 86.1086 41.6665C86.0398 41.6665 85.9715 41.6657 85.9027 41.6655C85.58 41.6649 85.2584 41.6627 84.9373 41.6588C84.7669 41.6568 84.5968 41.6541 84.4267 41.6513C84.2006 41.6474 83.9752 41.6425 83.75 41.6373C82.9327 41.6177 82.1224 41.589 81.321 41.5498C81.3053 41.549 81.2897 41.5483 81.274 41.5475C74.9487 41.2348 69.143 40.3248 64.236 39.0477C58.8944 37.6372 54.5149 35.728 51.6365 33.4929L50.0728 32.2787C49.1198 31.2442 48.6085 30.1935 48.6085 29.1669V26.8584C48.6209 26.8647 48.634 26.8706 48.6464 26.8769C48.8846 26.9971 49.1269 27.1157 49.3739 27.2329C49.4272 27.2582 49.4824 27.2828 49.5359 27.3078C49.732 27.3996 49.9304 27.4905 50.1318 27.5802C50.2197 27.6195 50.3092 27.6579 50.3981 27.6968C50.5716 27.7725 50.747 27.8476 50.9244 27.922C51.0202 27.9621 51.1163 28.002 51.2131 28.0416C51.3968 28.1169 51.5828 28.1912 51.7704 28.2648C51.8585 28.2994 51.9455 28.3344 52.0346 28.3686C52.2928 28.4681 52.5543 28.5663 52.8194 28.663C52.8377 28.6697 52.8552 28.6766 52.8735 28.6831C53.1577 28.7863 53.4466 28.8874 53.7388 28.9873C53.8285 29.018 53.92 29.0479 54.0106 29.0784C54.2167 29.1476 54.4242 29.2162 54.6339 29.2839C54.7416 29.3185 54.8498 29.3529 54.9584 29.3871C55.1609 29.4509 55.3649 29.5138 55.5708 29.5763C55.678 29.6086 55.7849 29.6414 55.8929 29.6733C56.1256 29.7423 56.3612 29.8102 56.5983 29.8774C56.6784 29.9002 56.7576 29.9234 56.8381 29.9459C57.1557 30.0346 57.4766 30.1215 57.8013 30.207C57.8723 30.2257 57.9449 30.2436 58.0163 30.2621C58.2725 30.3284 58.5302 30.3941 58.7906 30.4584C58.9042 30.4865 59.0189 30.514 59.1333 30.5416C59.3581 30.596 59.5841 30.6497 59.8122 30.7026C59.9342 30.7309 60.0567 30.7591 60.1798 30.787C60.4142 30.8401 60.6506 30.8922 60.8882 30.9437C60.9999 30.9679 61.1108 30.9925 61.2231 31.0163C61.5535 31.0865 61.8866 31.1553 62.2229 31.2224C62.2406 31.2259 62.2581 31.2297 62.2758 31.2332C62.63 31.3036 62.988 31.3719 63.3486 31.4389C63.4613 31.4598 63.5752 31.48 63.6885 31.5005C63.9408 31.5463 64.1941 31.5917 64.4492 31.6358C64.5819 31.6588 64.7151 31.6814 64.8488 31.704C65.0944 31.7455 65.3412 31.786 65.5894 31.8258C65.7206 31.847 65.8516 31.8681 65.9834 31.8889C66.2652 31.933 66.5492 31.976 66.8343 32.0181C66.9301 32.0323 67.0249 32.047 67.1209 32.061C67.501 32.1162 67.8839 32.1697 68.2696 32.2213C68.3598 32.2333 68.4511 32.2447 68.5416 32.2565C68.8399 32.2958 69.1394 32.3341 69.4409 32.3713C69.5774 32.3882 69.7147 32.4042 69.8519 32.4207C70.1147 32.4521 70.3784 32.4828 70.6435 32.5125C70.7875 32.5286 70.9316 32.5446 71.0762 32.5605C71.3509 32.5904 71.6272 32.6191 71.9041 32.6472C72.0329 32.6602 72.161 32.6736 72.2904 32.6864C72.6851 32.7253 73.0816 32.7625 73.4808 32.7979C73.4904 32.7987 73.4997 32.7998 73.5091 32.8006C73.918 32.8366 74.33 32.8706 74.7436 32.9031C74.8736 32.9133 75.0047 32.9228 75.1351 32.9326C75.4228 32.9544 75.7113 32.9755 76.001 32.9955C76.1523 33.0058 76.3041 33.016 76.4561 33.026C76.7362 33.0443 77.0174 33.0618 77.2996 33.0785C77.4467 33.0872 77.5936 33.0962 77.7413 33.1043C78.0648 33.1224 78.3897 33.1393 78.7154 33.1552C78.8181 33.1603 78.9205 33.166 79.0234 33.1706C79.4511 33.1908 79.8808 33.2089 80.3125 33.2254C80.4169 33.2292 80.5221 33.2325 80.6266 33.2362C80.9566 33.248 81.2874 33.2589 81.6195 33.2687C81.7716 33.2732 81.9244 33.2768 82.0772 33.2809C82.3688 33.2884 82.6609 33.2954 82.9541 33.3013C83.1136 33.3045 83.2733 33.3076 83.4332 33.3104C83.737 33.3157 84.0418 33.3198 84.3471 33.323C84.4885 33.3247 84.6297 33.3267 84.7715 33.3279C85.2157 33.3318 85.661 33.334 86.1084 33.334C86.5558 33.334 87.0011 33.3316 87.4453 33.3279C87.5871 33.3267 87.7283 33.3247 87.8697 33.323C88.1751 33.3196 88.4798 33.3155 88.7836 33.3104C88.9435 33.3078 89.1032 33.3045 89.2627 33.3013C89.5559 33.2954 89.848 33.2884 90.1396 33.2809C90.2922 33.2768 90.445 33.2732 90.5973 33.2687C90.9296 33.2589 91.2604 33.248 91.5902 33.2362C91.6948 33.2325 91.7999 33.2292 91.9043 33.2254C92.3358 33.2089 92.7655 33.1908 93.1932 33.1706C93.2963 33.1658 93.3987 33.1601 93.5016 33.155C93.8273 33.1389 94.152 33.1222 94.4753 33.1041C94.623 33.0958 94.7701 33.087 94.9174 33.0783C95.1994 33.0616 95.4806 33.0441 95.7605 33.0258C95.9125 33.0158 96.0645 33.0056 96.2161 32.9953C96.5058 32.9753 96.7941 32.9542 97.0815 32.9324C97.2122 32.9224 97.3432 32.9131 97.4734 32.9029C97.887 32.8703 98.299 32.8366 98.7079 32.8004C98.7175 32.7995 98.7268 32.7985 98.7364 32.7977C99.1356 32.7623 99.5321 32.7249 99.9266 32.6862C100.056 32.6734 100.184 32.66 100.313 32.647C100.59 32.6189 100.866 32.5902 101.141 32.5603C101.285 32.5446 101.43 32.5285 101.574 32.5123C101.839 32.4826 102.103 32.4518 102.366 32.4205C102.503 32.4042 102.64 32.388 102.777 32.3711C103.078 32.3341 103.377 32.2956 103.675 32.2565C103.766 32.2445 103.857 32.2333 103.948 32.2211C104.333 32.1695 104.716 32.1162 105.096 32.061C105.193 32.047 105.288 32.0323 105.384 32.0181C105.668 31.976 105.952 31.9333 106.234 31.8891C106.366 31.8684 106.497 31.8472 106.628 31.826C106.876 31.7862 107.123 31.7457 107.368 31.7042C107.502 31.6816 107.636 31.659 107.768 31.636C108.023 31.5919 108.276 31.5467 108.528 31.5009C108.642 31.4802 108.756 31.46 108.869 31.4391C109.229 31.3721 109.587 31.3038 109.941 31.2334C109.96 31.2297 109.978 31.2259 109.996 31.2222C110.332 31.1553 110.664 31.0865 110.994 31.0165C111.106 30.9925 111.218 30.9679 111.33 30.9437C111.567 30.8922 111.803 30.8403 112.037 30.7872C112.16 30.7593 112.283 30.7311 112.405 30.7026C112.633 30.6499 112.859 30.5962 113.083 30.5419C113.198 30.5142 113.313 30.4867 113.427 30.4584C113.687 30.3941 113.944 30.3286 114.2 30.2623C114.272 30.2438 114.344 30.2259 114.416 30.2072C114.74 30.1219 115.061 30.0349 115.378 29.9464C115.459 29.9238 115.539 29.9004 115.62 29.8774C115.856 29.8102 116.091 29.7427 116.324 29.6737C116.432 29.6416 116.539 29.609 116.646 29.5765C116.852 29.5142 117.056 29.4514 117.258 29.3877C117.367 29.3535 117.475 29.3191 117.583 29.2845C117.792 29.217 118 29.1484 118.206 29.0792C118.296 29.0487 118.388 29.0188 118.478 28.9879C118.77 28.888 119.059 28.7869 119.343 28.6839C119.362 28.677 119.38 28.6699 119.399 28.663C119.664 28.5665 119.924 28.4685 120.182 28.3694C120.271 28.335 120.359 28.3 120.447 28.2652C120.634 28.1916 120.82 28.1175 121.003 28.0425C121.1 28.0028 121.197 27.9627 121.292 27.9224C121.47 27.8482 121.644 27.7733 121.818 27.6978C121.907 27.659 121.997 27.6201 122.085 27.5808C122.286 27.4911 122.484 27.4002 122.68 27.3086C122.734 27.2834 122.789 27.2588 122.842 27.2335C123.089 27.1166 123.332 26.9977 123.57 26.8777C123.582 26.8714 123.595 26.8653 123.608 26.859V29.1665H123.609ZM86.1086 8.33315C106.686 8.33315 123.609 13.4099 123.609 16.6665C123.609 19.9231 106.686 24.9998 86.1086 24.9998C65.5314 24.9998 48.6085 19.9231 48.6085 16.6665C48.6085 13.4099 65.5314 8.33315 86.1086 8.33315ZM41.9532 44.2693C43.4319 43.2604 45.5952 42.27 48.3129 41.3764C56.0795 46.4582 68.7591 49.5824 83.15 49.9598C83.2127 49.9614 83.2754 49.9631 83.338 49.9647C83.691 49.9734 84.0452 49.9804 84.4002 49.9857C84.5323 49.9877 84.6641 49.9901 84.7964 49.9918C85.1351 49.9956 85.4751 49.9975 85.8154 49.9985C85.9139 49.9987 86.0118 50.0005 86.1102 50.0005C86.4854 50.0005 86.8595 49.9981 87.2331 49.9942C87.3344 49.9932 87.4351 49.9914 87.5362 49.9899C87.7771 49.9869 88.0178 49.9834 88.2579 49.9787C88.492 49.9743 88.7252 49.9686 88.9585 49.9627C89.0395 49.9606 89.1205 49.9586 89.2015 49.9564C98.9779 49.6882 107.96 48.1524 115.139 45.5952C115.234 45.7158 115.277 45.7982 115.277 45.8334H115.275C115.275 49.0901 98.3525 54.1668 77.7753 54.1668C67.1659 54.1668 57.528 52.8173 50.6801 51.0633C44.2472 49.4156 40.2768 47.4112 40.2768 45.8338C40.2768 45.7101 40.6837 45.1354 41.9532 44.2693ZM123.609 79.1666C123.609 85.0264 107.009 91.6666 86.1086 91.6666C65.2083 91.6666 48.6085 85.0264 48.6085 79.1666V76.8581C56.8802 81.0469 70.5477 83.3333 86.1086 83.3333C87.2992 83.3333 88.4774 83.3182 89.6442 83.2916C89.6513 83.2914 89.6584 83.2912 89.6653 83.2912C91.5967 83.2468 93.4931 83.1665 95.3479 83.0505C95.3707 83.0491 95.3935 83.0477 95.4163 83.0462C95.7778 83.0234 96.1379 82.9994 96.4964 82.974C96.5031 82.9736 96.5096 82.973 96.5163 82.9726C97.9771 82.8686 99.4102 82.7421 100.813 82.594C100.838 82.5913 100.863 82.5887 100.888 82.586C101.215 82.5512 101.541 82.515 101.865 82.4778C101.909 82.4727 101.953 82.4676 101.997 82.4625C103.365 82.3038 104.702 82.1242 106.004 81.9232C106.019 81.9207 106.035 81.9185 106.05 81.9161C106.346 81.8703 106.64 81.8231 106.932 81.7751C106.995 81.7647 107.058 81.7545 107.12 81.7441C107.403 81.6971 107.684 81.6493 107.963 81.6003C108.018 81.5907 108.073 81.5808 108.127 81.5712C109.337 81.3568 110.512 81.1234 111.651 80.8715C111.724 80.8555 111.798 80.8394 111.87 80.8231C112.112 80.7688 112.353 80.7135 112.592 80.6575C112.676 80.6378 112.76 80.6178 112.843 80.5979C113.082 80.5411 113.319 80.484 113.553 80.4256C113.613 80.4107 113.672 80.3955 113.731 80.3806C114.499 80.1871 115.248 79.9847 115.977 79.7731C116.056 79.7501 116.136 79.7275 116.215 79.7043C116.419 79.6445 116.62 79.5835 116.82 79.5221C116.919 79.4917 117.017 79.4614 117.115 79.4309C117.309 79.3705 117.501 79.3094 117.692 79.2478C117.788 79.2165 117.884 79.1845 117.98 79.1528C118.172 79.0891 118.365 79.0254 118.554 78.9603C118.608 78.9416 118.661 78.9225 118.715 78.9038C119.106 78.7679 119.489 78.6289 119.866 78.4871C119.949 78.4558 120.033 78.425 120.115 78.3935C120.28 78.3302 120.442 78.2659 120.604 78.2017C120.71 78.1593 120.817 78.117 120.922 78.0741C121.076 78.0114 121.229 77.948 121.38 77.8843C121.489 77.8383 121.598 77.7917 121.705 77.7451C121.852 77.6818 121.998 77.6184 122.142 77.5541C122.252 77.505 122.359 77.4552 122.467 77.4056C122.692 77.302 122.914 77.1972 123.132 77.0912C123.266 77.0261 123.402 76.9612 123.533 76.8951C123.558 76.8827 123.583 76.8707 123.608 76.8583V79.1666H123.609Z" />
      <path d="M16.9797 0.988123C17.6578 0.300101 18.6048 -0.0584866 19.5693 0.00856646C20.5016 -0.0614019 21.4106 0.300101 22.0419 0.988123L38.0674 16.9147C39.3943 18.2382 39.3943 20.3839 38.0674 21.7075C36.7405 23.0311 34.5893 23.0311 33.2624 21.7075L22.9041 11.3755V35.6779C22.9158 37.5379 21.4135 39.0538 19.5488 39.0626C19.543 39.0626 19.5371 39.0626 19.5284 39.0626C17.6578 39.0509 16.1438 37.5437 16.1351 35.6779V11.3784L5.8002 21.7075C4.47327 23.0311 2.32213 23.0311 0.995197 21.7075C-0.331732 20.3839 -0.331732 18.2382 0.995197 16.9147L16.9797 0.988123Z" />
  </symbol>

  <symbol viewBox="0 0 150 100" id="income">
      <path d="M131.943 66.665C131.943 62.3602 128.849 59.0628 123.609 56.4835V45.8888C123.609 45.8703 123.61 45.8521 123.61 45.8338C123.61 44.5067 123.299 43.2683 122.72 42.115C128.499 38.689 131.942 34.2825 131.942 29.1667V16.6667C131.942 6.11533 111.557 0 86.1083 0C60.6595 0 40.2751 6.11512 40.2751 16.6665V29.1665C40.2751 31.1972 40.8204 33.1153 41.836 34.9057C35.5923 37.5829 31.9436 41.1319 31.9434 45.8332H31.9418V58.3332C31.9418 63.1807 35.034 67.3909 40.2751 70.734V79.1666C40.2751 91.7157 60.9852 100 86.1085 100C111.232 100 131.942 91.7157 131.942 79.1666V66.7063C131.942 66.6924 131.943 66.6788 131.943 66.665ZM123.61 66.6666H123.609C123.609 66.7681 123.592 66.8715 123.56 66.9762C123.559 66.9791 123.557 66.9819 123.556 66.9848C123.541 67.0332 123.522 67.0818 123.5 67.1309C123.494 67.1447 123.486 67.1589 123.479 67.1728C123.46 67.2108 123.441 67.2489 123.418 67.2873C123.406 67.3077 123.392 67.3282 123.379 67.3488C123.358 67.3809 123.338 67.4131 123.315 67.4454C123.297 67.4706 123.276 67.4959 123.256 67.5213C123.234 67.5492 123.213 67.5772 123.189 67.6053C123.164 67.634 123.138 67.6629 123.111 67.6918C123.088 67.7168 123.066 67.7416 123.042 67.7667C123.011 67.7984 122.978 67.8301 122.944 67.8621C122.921 67.8845 122.898 67.9068 122.873 67.9292C122.836 67.9634 122.796 67.9978 122.756 68.0322C122.732 68.0523 122.709 68.0726 122.685 68.0928C122.64 68.1294 122.593 68.1662 122.546 68.2031C122.523 68.2212 122.5 68.2391 122.476 68.2572C122.424 68.2962 122.37 68.3353 122.315 68.3744C122.292 68.3904 122.27 68.4063 122.247 68.4224C122.187 68.4635 122.126 68.5048 122.063 68.5461C122.042 68.5599 122.02 68.574 121.999 68.5878C121.931 68.6313 121.862 68.6747 121.79 68.7182C121.771 68.73 121.752 68.7418 121.732 68.7536C121.656 68.7994 121.578 68.8452 121.497 68.8909C121.481 68.9003 121.464 68.9098 121.447 68.9192C121.362 68.9672 121.275 69.0152 121.186 69.0633C121.172 69.0706 121.158 69.0777 121.145 69.085C121.05 69.1355 120.953 69.1859 120.853 69.2364C120.844 69.2409 120.835 69.2451 120.827 69.2496C120.721 69.3027 120.613 69.356 120.502 69.4091C120.499 69.4107 120.495 69.4126 120.492 69.4142C118.75 70.2475 116.335 71.0831 113.396 71.8448C117.022 69.8533 119.828 67.503 121.572 64.8514C122.958 65.6949 123.61 66.3769 123.61 66.6644C123.61 66.6656 123.61 66.666 123.61 66.6666ZM40.2751 58.3332V56.0247C40.2928 56.0336 40.3117 56.0424 40.3294 56.0513C40.5581 56.1667 40.7909 56.2806 41.0277 56.3931C41.1081 56.4312 41.1911 56.4684 41.2722 56.5063C41.4405 56.5846 41.6098 56.6625 41.7819 56.7394C41.8858 56.7858 41.9916 56.8316 42.097 56.8774C42.2533 56.9453 42.4105 57.0129 42.5698 57.0796C42.6789 57.1254 42.7884 57.1707 42.8988 57.2159C43.0659 57.2843 43.2351 57.3518 43.4056 57.4187C43.5084 57.4592 43.6105 57.5001 43.7145 57.5402C43.9413 57.6277 44.1716 57.7137 44.404 57.7988C44.454 57.8171 44.5026 57.836 44.5529 57.8543C44.8302 57.9548 45.1122 58.0537 45.397 58.1512C45.4975 58.1855 45.5996 58.2191 45.701 58.2531C45.8963 58.3186 46.0926 58.3835 46.2914 58.4476C46.4061 58.4846 46.5217 58.5212 46.6376 58.5577C46.8317 58.6187 47.0275 58.6791 47.2246 58.7389C47.3385 58.7735 47.4523 58.8081 47.5672 58.8423C47.7922 58.909 48.0199 58.9745 48.2488 59.0394C48.3354 59.064 48.4209 59.0893 48.5082 59.1135C48.8241 59.2018 49.1435 59.2883 49.4666 59.3731C49.5397 59.3922 49.6143 59.4107 49.6878 59.4299C49.9423 59.4958 50.1984 59.5611 50.457 59.625C50.5703 59.6528 50.6847 59.6803 50.7988 59.708C51.0251 59.7627 51.2527 59.8166 51.482 59.8699C51.6014 59.8976 51.7213 59.9253 51.8415 59.9525C52.0818 60.007 52.3239 60.0603 52.5674 60.113C52.6728 60.1358 52.7774 60.159 52.8834 60.1816C53.5845 60.3305 54.2988 60.4725 55.0257 60.6076C55.1238 60.6257 55.2229 60.6434 55.3213 60.6613C55.5905 60.7104 55.8609 60.7586 56.1333 60.8058C56.2521 60.8263 56.3715 60.8467 56.4912 60.8668C56.7551 60.9114 57.0206 60.9551 57.2875 60.9978C57.4014 61.0162 57.5151 61.0347 57.6297 61.0526C57.9418 61.1016 58.2561 61.1492 58.5721 61.1956C58.638 61.2054 58.7033 61.2155 58.7694 61.2251C59.1621 61.2821 59.5576 61.3374 59.9561 61.3907C60.0062 61.3974 60.0569 61.4035 60.1069 61.4102C60.4479 61.4554 60.7911 61.4991 61.1364 61.5415C61.245 61.5549 61.3545 61.5677 61.4635 61.5807C61.7591 61.6161 62.0562 61.6507 62.3546 61.6841C62.4706 61.6971 62.5864 61.7099 62.7027 61.7225C63.0175 61.7567 63.3338 61.7899 63.6518 61.8218C63.7428 61.831 63.8331 61.8405 63.9245 61.8495C64.7556 61.9315 65.597 62.0057 66.4485 62.0723C66.5303 62.0786 66.6127 62.0845 66.6946 62.0908C67.0356 62.1168 67.378 62.1416 67.7221 62.1652C67.8328 62.1728 67.9436 62.1801 68.0547 62.1874C68.3863 62.2094 68.7192 62.2299 69.0535 62.2497C69.1544 62.2556 69.2551 62.2617 69.3562 62.2674C69.7578 62.2902 70.161 62.3113 70.5665 62.3307C70.5936 62.3319 70.6204 62.3335 70.6477 62.3347C71.1044 62.3563 71.5634 62.3758 72.0247 62.3933C72.0438 62.3941 72.0629 62.3945 72.082 62.3953C72.5022 62.411 72.9241 62.4246 73.3477 62.4369C73.4427 62.4395 73.5381 62.4419 73.6335 62.4444C73.9916 62.4539 74.3507 62.4623 74.711 62.4694C74.8148 62.4714 74.9185 62.4735 75.0227 62.4753C75.4044 62.482 75.7875 62.4873 76.1718 62.4912C76.2406 62.4918 76.3091 62.4928 76.3779 62.4934C76.8424 62.4975 77.3083 62.5003 77.7762 62.5003C78.245 62.5003 78.7115 62.4977 79.1768 62.4934C79.2388 62.4928 79.3005 62.492 79.3625 62.4914C79.756 62.4873 80.148 62.482 80.5389 62.4751C80.6339 62.4735 80.7287 62.4716 80.8233 62.4696C81.1972 62.4623 81.57 62.4535 81.9413 62.4436C82.023 62.4413 82.105 62.4393 82.1866 62.4371C83.5514 62.398 84.8978 62.3408 86.2239 62.2655C86.2969 62.2615 86.3698 62.257 86.4426 62.2527C86.8111 62.2312 87.1779 62.2084 87.5431 62.1842C87.6247 62.1787 87.706 62.1734 87.7874 62.1679C88.1752 62.1414 88.5611 62.1134 88.9453 62.0839C88.9862 62.0808 89.0272 62.0778 89.0681 62.0747C89.9452 62.0064 90.8121 61.9296 91.6678 61.8452C91.7077 61.8413 91.7474 61.8371 91.7873 61.833C92.163 61.7956 92.5364 61.7563 92.9079 61.7158C92.9801 61.7079 93.0521 61.7 93.1243 61.6918C93.4794 61.6523 93.8324 61.6115 94.1833 61.5691C94.2421 61.562 94.3013 61.5551 94.3599 61.548C95.5961 61.3968 96.8056 61.2282 97.9864 61.0422C98.0418 61.0334 98.0965 61.0245 98.1516 61.0157C98.4887 60.962 98.8232 60.9069 99.1556 60.8503C99.2169 60.84 99.2783 60.8296 99.3396 60.819C99.695 60.7578 100.048 60.6951 100.397 60.6308C100.42 60.6267 100.442 60.6227 100.465 60.6186C101.236 60.476 101.992 60.3254 102.734 60.1674C102.761 60.1615 102.788 60.1556 102.816 60.1497C103.147 60.0787 103.475 60.006 103.8 59.9318C103.855 59.9193 103.91 59.9067 103.965 59.8941C104.277 59.8223 104.586 59.7489 104.893 59.6742C104.934 59.664 104.976 59.6541 105.018 59.6439C106.07 59.3853 107.087 59.1098 108.067 58.8179C108.109 58.8055 108.15 58.7928 108.191 58.7804C108.474 58.6954 108.754 58.6089 109.031 58.5212C109.077 58.5066 109.123 58.4919 109.169 58.4773C109.466 58.3821 109.76 58.2854 110.05 58.1872C110.062 58.1831 110.074 58.1792 110.086 58.1752C110.712 57.962 111.32 57.741 111.91 57.5129C111.93 57.5052 111.95 57.4971 111.97 57.4893C112.233 57.3868 112.493 57.2828 112.749 57.1772C112.791 57.1597 112.833 57.1424 112.875 57.125C113.12 57.023 113.362 56.9197 113.6 56.8149C113.631 56.8013 113.663 56.7876 113.694 56.7738C114.24 56.5315 114.768 56.2823 115.275 56.0255V58.049L115.203 58.6472C114.486 64.5493 98.0804 70.8325 77.7764 70.8325C77.0047 70.8325 76.2371 70.8237 75.4742 70.8062C75.4736 70.8062 75.4731 70.8062 75.4725 70.8062C75.1346 70.7985 74.7981 70.7883 74.4622 70.7773C74.3731 70.7743 74.284 70.7714 74.1951 70.7682C73.9737 70.7602 73.7532 70.7509 73.5328 70.7415C73.3573 70.734 73.1815 70.7267 73.0067 70.7181C72.9471 70.7153 72.8879 70.7118 72.8285 70.709C66.9471 70.4113 61.5178 69.5977 56.846 68.4533C56.7799 68.4368 56.7127 68.421 56.647 68.4045C56.6008 68.3931 56.5557 68.3813 56.5097 68.3697C52.8364 67.4346 49.574 66.2587 46.8846 64.8846L44.5148 63.6738C41.8043 61.9591 40.2751 60.1104 40.2751 58.3332ZM123.609 29.1665C123.609 31.5129 120.945 33.9842 116.411 36.1044L116.402 36.0983L114.326 36.9487C112.361 37.7538 110.187 38.4677 107.848 39.0821C101.739 40.6587 94.2502 41.6665 86.1085 41.6665C86.0398 41.6665 85.9714 41.6657 85.9027 41.6655C85.58 41.6649 85.2583 41.6627 84.9373 41.6588C84.7668 41.6568 84.5967 41.6541 84.4266 41.6513C84.2006 41.6474 83.9752 41.6425 83.7499 41.6373C82.9327 41.6177 82.1223 41.589 81.3209 41.5498C81.3053 41.549 81.2896 41.5483 81.2739 41.5475C74.9487 41.2348 69.143 40.3248 64.2359 39.0477C58.8943 37.6372 54.5149 35.728 51.6364 33.4929L50.0727 32.2787C49.1197 31.2442 48.6085 30.1935 48.6085 29.1669V26.8584C48.6209 26.8647 48.6339 26.8706 48.6463 26.8769C48.8846 26.9971 49.1269 27.1157 49.3739 27.2329C49.4272 27.2582 49.4823 27.2828 49.5358 27.3078C49.7319 27.3996 49.9303 27.4905 50.1317 27.5802C50.2196 27.6195 50.3091 27.6579 50.398 27.6968C50.5716 27.7725 50.7469 27.8476 50.9244 27.922C51.0202 27.9621 51.1162 28.002 51.2131 28.0416C51.3968 28.1169 51.5827 28.1912 51.7703 28.2648C51.8584 28.2994 51.9455 28.3344 52.0346 28.3686C52.2928 28.4681 52.5542 28.5663 52.8193 28.663C52.8376 28.6697 52.8551 28.6766 52.8734 28.6831C53.1576 28.7863 53.4465 28.8874 53.7387 28.9873C53.8284 29.018 53.92 29.0479 54.0105 29.0784C54.2166 29.1476 54.4241 29.2162 54.6339 29.2839C54.7415 29.3185 54.8497 29.3529 54.9584 29.3871C55.1608 29.4509 55.3649 29.5138 55.5708 29.5763C55.678 29.6086 55.7848 29.6414 55.8928 29.6733C56.1256 29.7423 56.3612 29.8102 56.5982 29.8774C56.6784 29.9002 56.7575 29.9234 56.8381 29.9459C57.1556 30.0346 57.4765 30.1215 57.8012 30.207C57.8722 30.2257 57.9448 30.2436 58.0162 30.2621C58.2724 30.3284 58.5302 30.3941 58.7906 30.4584C58.9041 30.4865 59.0189 30.514 59.1332 30.5416C59.358 30.596 59.584 30.6497 59.8121 30.7026C59.9342 30.7309 60.0567 30.7591 60.1797 30.787C60.4141 30.8401 60.6505 30.8922 60.8882 30.9437C60.9999 30.9679 61.1107 30.9925 61.223 31.0163C61.5534 31.0865 61.8865 31.1553 62.2228 31.2224C62.2405 31.2259 62.258 31.2297 62.2757 31.2332C62.6299 31.3036 62.988 31.3719 63.3485 31.4389C63.4612 31.4598 63.5751 31.48 63.6885 31.5005C63.9407 31.5463 64.194 31.5917 64.4492 31.6358C64.5818 31.6588 64.7151 31.6814 64.8487 31.704C65.0943 31.7455 65.3411 31.786 65.5893 31.8258C65.7205 31.847 65.8515 31.8681 65.9834 31.8889C66.2652 31.933 66.5492 31.976 66.8342 32.0181C66.93 32.0323 67.0248 32.047 67.1209 32.061C67.5009 32.1162 67.8838 32.1697 68.2696 32.2213C68.3597 32.2333 68.451 32.2447 68.5416 32.2565C68.8398 32.2958 69.1393 32.3341 69.4408 32.3713C69.5773 32.3882 69.7147 32.4042 69.8518 32.4207C70.1147 32.4521 70.3783 32.4828 70.6434 32.5125C70.7875 32.5286 70.9315 32.5446 71.0762 32.5605C71.3508 32.5904 71.6271 32.6191 71.904 32.6472C72.0328 32.6602 72.161 32.6736 72.2904 32.6864C72.6851 32.7253 73.0816 32.7625 73.4808 32.7979C73.4903 32.7987 73.4997 32.7998 73.509 32.8006C73.918 32.8366 74.33 32.8706 74.7436 32.9031C74.8736 32.9133 75.0046 32.9228 75.135 32.9326C75.4227 32.9544 75.7112 32.9755 76.0009 32.9955C76.1523 33.0058 76.304 33.016 76.456 33.026C76.7362 33.0443 77.0173 33.0618 77.2995 33.0785C77.4466 33.0872 77.5935 33.0962 77.7412 33.1043C78.0647 33.1224 78.3896 33.1393 78.7153 33.1552C78.8181 33.1603 78.9204 33.166 79.0234 33.1706C79.451 33.1908 79.8807 33.2089 80.3124 33.2254C80.4168 33.2292 80.522 33.2325 80.6266 33.2362C80.9566 33.248 81.2874 33.2589 81.6194 33.2687C81.7716 33.2732 81.9244 33.2768 82.0772 33.2809C82.3687 33.2884 82.6609 33.2954 82.954 33.3013C83.1135 33.3045 83.2733 33.3076 83.4332 33.3104C83.7369 33.3157 84.0417 33.3198 84.3471 33.323C84.4885 33.3247 84.6297 33.3267 84.7715 33.3279C85.2156 33.3318 85.661 33.334 86.1083 33.334C86.5557 33.334 87.0011 33.3316 87.4452 33.3279C87.587 33.3267 87.7282 33.3247 87.8696 33.323C88.175 33.3196 88.4798 33.3155 88.7835 33.3104C88.9434 33.3078 89.1031 33.3045 89.2626 33.3013C89.5558 33.2954 89.848 33.2884 90.1395 33.2809C90.2921 33.2768 90.4449 33.2732 90.5973 33.2687C90.9295 33.2589 91.2603 33.248 91.5901 33.2362C91.6947 33.2325 91.7999 33.2292 91.9042 33.2254C92.3358 33.2089 92.7655 33.1908 93.1931 33.1706C93.2963 33.1658 93.3986 33.1601 93.5015 33.155C93.8273 33.1389 94.152 33.1222 94.4753 33.1041C94.623 33.0958 94.7701 33.087 94.9174 33.0783C95.1993 33.0616 95.4805 33.0441 95.7605 33.0258C95.9124 33.0158 96.0644 33.0056 96.216 32.9953C96.5057 32.9753 96.794 32.9542 97.0815 32.9324C97.2121 32.9224 97.3431 32.9131 97.4733 32.9029C97.8869 32.8703 98.2989 32.8366 98.7079 32.8004C98.7174 32.7995 98.7268 32.7985 98.7363 32.7977C99.1355 32.7623 99.532 32.7249 99.9265 32.6862C100.056 32.6734 100.184 32.66 100.313 32.647C100.59 32.6189 100.866 32.5902 101.141 32.5603C101.285 32.5446 101.43 32.5285 101.574 32.5123C101.839 32.4826 102.103 32.4518 102.365 32.4205C102.503 32.4042 102.64 32.388 102.776 32.3711C103.078 32.3341 103.377 32.2956 103.675 32.2565C103.766 32.2445 103.857 32.2333 103.948 32.2211C104.333 32.1695 104.716 32.1162 105.096 32.061C105.192 32.047 105.287 32.0323 105.384 32.0181C105.668 31.976 105.952 31.9333 106.234 31.8891C106.366 31.8684 106.497 31.8472 106.628 31.826C106.876 31.7862 107.123 31.7457 107.368 31.7042C107.502 31.6816 107.635 31.659 107.768 31.636C108.023 31.5919 108.276 31.5467 108.528 31.5009C108.642 31.4802 108.756 31.46 108.869 31.4391C109.229 31.3721 109.587 31.3038 109.941 31.2334C109.96 31.2297 109.978 31.2259 109.996 31.2222C110.332 31.1553 110.664 31.0865 110.994 31.0165C111.106 30.9925 111.217 30.9679 111.33 30.9437C111.567 30.8922 111.803 30.8403 112.037 30.7872C112.16 30.7593 112.283 30.7311 112.405 30.7026C112.633 30.6499 112.859 30.5962 113.083 30.5419C113.198 30.5142 113.313 30.4867 113.427 30.4584C113.687 30.3941 113.944 30.3286 114.2 30.2623C114.272 30.2438 114.344 30.2259 114.415 30.2072C114.74 30.1219 115.061 30.0349 115.378 29.9464C115.459 29.9238 115.539 29.9004 115.62 29.8774C115.856 29.8102 116.091 29.7427 116.323 29.6737C116.432 29.6416 116.539 29.609 116.646 29.5765C116.852 29.5142 117.056 29.4514 117.258 29.3877C117.367 29.3535 117.475 29.3191 117.583 29.2845C117.792 29.217 118 29.1484 118.206 29.0792C118.296 29.0487 118.388 29.0188 118.478 28.9879C118.77 28.888 119.059 28.7869 119.343 28.6839C119.362 28.677 119.38 28.6699 119.399 28.663C119.663 28.5665 119.924 28.4685 120.182 28.3694C120.271 28.335 120.358 28.3 120.447 28.2652C120.634 28.1916 120.82 28.1175 121.003 28.0425C121.1 28.0028 121.197 27.9627 121.292 27.9224C121.47 27.8482 121.644 27.7733 121.818 27.6978C121.907 27.659 121.996 27.6201 122.085 27.5808C122.286 27.4911 122.484 27.4002 122.68 27.3086C122.734 27.2834 122.789 27.2588 122.842 27.2335C123.089 27.1166 123.332 26.9977 123.57 26.8777C123.582 26.8714 123.595 26.8653 123.608 26.859V29.1665H123.609ZM86.1085 8.33315C106.686 8.33315 123.609 13.4099 123.609 16.6665C123.609 19.9231 106.686 24.9998 86.1085 24.9998C65.5313 24.9998 48.6085 19.9231 48.6085 16.6665C48.6085 13.4099 65.5313 8.33315 86.1085 8.33315ZM41.9532 44.2693C43.4319 43.2604 45.5952 42.27 48.3129 41.3764C56.0794 46.4582 68.7591 49.5824 83.15 49.9598C83.2126 49.9614 83.2753 49.9631 83.3379 49.9647C83.6909 49.9734 84.0451 49.9804 84.4002 49.9857C84.5322 49.9877 84.664 49.9901 84.7963 49.9918C85.135 49.9956 85.475 49.9975 85.8154 49.9985C85.9138 49.9987 86.0117 50.0005 86.1102 50.0005C86.4853 50.0005 86.8595 49.9981 87.233 49.9942C87.3343 49.9932 87.435 49.9914 87.5362 49.9899C87.777 49.9869 88.0177 49.9834 88.2578 49.9787C88.492 49.9743 88.7251 49.9686 88.9585 49.9627C89.0395 49.9606 89.1204 49.9586 89.2014 49.9564C98.9778 49.6882 107.96 48.1524 115.139 45.5952C115.234 45.7158 115.276 45.7982 115.277 45.8334H115.275C115.275 49.0901 98.3524 54.1668 77.7752 54.1668C67.1658 54.1668 57.528 52.8173 50.68 51.0633C44.2471 49.4156 40.2767 47.4112 40.2767 45.8338C40.2767 45.7101 40.6837 45.1354 41.9532 44.2693ZM123.609 79.1666C123.609 85.0264 107.009 91.6666 86.1085 91.6666C65.2082 91.6666 48.6085 85.0264 48.6085 79.1666V76.8581C56.8802 81.0469 70.5476 83.3333 86.1085 83.3333C87.2991 83.3333 88.4773 83.3182 89.6441 83.2916C89.6512 83.2914 89.6584 83.2912 89.6653 83.2912C91.5966 83.2468 93.493 83.1665 95.3479 83.0505C95.3707 83.0491 95.3934 83.0477 95.4162 83.0462C95.7778 83.0234 96.1379 82.9994 96.4963 82.974C96.5031 82.9736 96.5096 82.973 96.5163 82.9726C97.9771 82.8686 99.4102 82.7421 100.813 82.594C100.838 82.5913 100.863 82.5887 100.888 82.586C101.215 82.5512 101.541 82.515 101.865 82.4778C101.909 82.4727 101.953 82.4676 101.997 82.4625C103.365 82.3038 104.702 82.1242 106.004 81.9232C106.019 81.9207 106.035 81.9185 106.05 81.9161C106.346 81.8703 106.64 81.8231 106.932 81.7751C106.995 81.7647 107.057 81.7545 107.12 81.7441C107.403 81.6971 107.684 81.6493 107.963 81.6003C108.018 81.5907 108.072 81.5808 108.127 81.5712C109.337 81.3568 110.512 81.1234 111.651 80.8715C111.724 80.8555 111.797 80.8394 111.87 80.8231C112.112 80.7688 112.353 80.7135 112.592 80.6575C112.676 80.6378 112.76 80.6178 112.843 80.5979C113.081 80.5411 113.319 80.484 113.553 80.4256C113.613 80.4107 113.672 80.3955 113.731 80.3806C114.499 80.1871 115.248 79.9847 115.977 79.7731C116.056 79.7501 116.136 79.7275 116.215 79.7043C116.418 79.6445 116.619 79.5835 116.82 79.5221C116.919 79.4917 117.017 79.4614 117.115 79.4309C117.309 79.3705 117.501 79.3094 117.691 79.2478C117.788 79.2165 117.884 79.1845 117.98 79.1528C118.172 79.0891 118.365 79.0254 118.554 78.9603C118.608 78.9416 118.661 78.9225 118.715 78.9038C119.106 78.7679 119.489 78.6289 119.866 78.4871C119.949 78.4558 120.033 78.425 120.115 78.3935C120.28 78.3302 120.442 78.2659 120.603 78.2017C120.71 78.1593 120.817 78.117 120.922 78.0741C121.076 78.0114 121.229 77.948 121.38 77.8843C121.489 77.8383 121.598 77.7917 121.705 77.7451C121.852 77.6818 121.998 77.6184 122.142 77.5541C122.252 77.505 122.359 77.4552 122.467 77.4056C122.692 77.302 122.914 77.1972 123.132 77.0912C123.266 77.0261 123.402 76.9612 123.533 76.8951C123.558 76.8827 123.583 76.8707 123.608 76.8583V79.1666H123.609Z" />
      <path d="M22.0828 38.0744C21.4048 38.7624 20.4578 39.121 19.4933 39.0539C18.5609 39.1239 17.6519 38.7624 17.0206 38.0744L0.995178 22.1478C-0.331751 20.8243 -0.331752 18.6786 0.995178 17.355C2.32211 16.0314 4.47325 16.0314 5.80018 17.355L16.1584 27.687L16.1584 3.38464C16.1467 1.52465 17.649 0.00866876 19.5137 -7.7446e-05C19.5196 -7.74465e-05 19.5254 -7.7447e-05 19.5342 -7.74477e-05C21.4048 0.0115838 22.9187 1.51882 22.9275 3.38464L22.9275 27.6841L33.2624 17.355C34.5893 16.0314 36.7404 16.0314 38.0674 17.355C39.3943 18.6786 39.3943 20.8243 38.0674 22.1478L22.0828 38.0744Z" />
  </symbol>

  <symbol viewBox="0 0 100 100" id="wallet">
      <path d="M111.126 42.4436V37.9156C111.126 29.6355 105.444 22.6753 97.7798 20.681L97.766 13.2152C97.766 5.92926 91.8367 0 84.5477 0H83.8486L21.987 19.1906C20.578 19.272 19.2413 19.5977 17.986 20.0879H17.8247C7.99736 20.0879 0 28.0852 0 37.9156V82.1723C0 92.0011 7.99582 100 17.8247 100H93.301C103.128 100 111.126 92.0026 111.126 82.1723V76.286C114.695 74.9047 117.239 71.4446 117.239 67.3914V51.3352C117.238 47.285 114.695 43.8249 111.126 42.4436ZM108.019 67.3898C108.019 67.5711 107.876 67.714 107.695 67.714H82.7408C82.5595 67.714 82.4181 67.5711 82.4181 67.3898V51.3352C82.4181 51.1585 82.5625 51.0141 82.7408 51.0141H107.695C107.873 51.0141 108.019 51.1585 108.019 51.3352V67.3898ZM85.1177 9.26034C87.0552 9.53691 88.5471 11.2055 88.5471 13.2229L88.5594 20.0894H50.2105L85.1177 9.26034ZM93.301 90.7796H17.8262C13.0739 90.7796 9.22039 86.9246 9.22039 82.1707V37.9156C9.22039 33.1602 13.0739 29.3067 17.8262 29.3067H93.301C98.0548 29.3067 101.907 33.1602 101.907 37.9156V41.7952H82.7408C77.4799 41.7952 73.1992 46.0743 73.1992 51.3352V67.3898C73.1992 72.6523 77.4799 76.9329 82.7408 76.9329H101.907V82.1723C101.907 86.9246 98.0548 90.7796 93.301 90.7796Z"/>
  </symbol>

  <symbol viewBox="0 0 120 100" id="menu">
      <path d="M120 0H0V12H120V0Z"/>
      <path d="M120 87.957H0V99.8776H120V87.957Z"/>
      <path d="M120 43.4785H0V55.4785H120V43.4785Z"/>
  </symbol>

  <symbol viewBox="0 0 34 30" id="statistic">
      <path d="M31.4662 26.6162H1.69173C0.757444 26.6162 0 27.3737 0 28.3079C0 29.2422 0.757444 29.9997 1.69173 29.9997H31.4662C32.4004 29.9997 33.1579 29.2422 33.1579 28.3079C33.1579 27.3737 32.4004 26.6162 31.4662 26.6162Z" />
      <path d="M3.43984 24.1356H8.74059C9.33236 24.1356 9.81202 23.6559 9.81202 23.0641V8.40248C9.81202 7.81072 9.33236 7.33105 8.74059 7.33105H3.43984C2.84807 7.33105 2.36841 7.81072 2.36841 8.40248V23.0641C2.36841 23.6559 2.84807 24.1356 3.43984 24.1356Z" />
      <path d="M13.9286 24.1353H19.2294C19.8211 24.1353 20.3008 23.6557 20.3008 23.0639V1.07143C20.3008 0.479662 19.8211 0 19.2294 0H13.9286C13.3368 0 12.8572 0.479662 12.8572 1.07143V23.0639C12.8572 23.6557 13.3368 24.1353 13.9286 24.1353Z" />
      <path d="M24.4173 24.1354H29.718C30.3098 24.1354 30.7894 23.6557 30.7894 23.0639V11.2218C30.7894 10.6301 30.3098 10.1504 29.718 10.1504H24.4173C23.8255 10.1504 23.3458 10.6301 23.3458 11.2218V23.0639C23.3458 23.6557 23.8255 24.1354 24.4173 24.1354Z" />
  </symbol>

  <symbol viewBox="0 0 489 489" id="transfer">
      <path d="M481.044,382.5c0-6.8-5.5-12.3-12.3-12.3h-418.7l73.6-73.6c4.8-4.8,4.8-12.5,0-17.3c-4.8-4.8-12.5-4.8-17.3,0l-94.5,94.5	c-4.8,4.8-4.8,12.5,0,17.3l94.5,94.5c2.4,2.4,5.5,3.6,8.7,3.6s6.3-1.2,8.7-3.6c4.8-4.8,4.8-12.5,0-17.3l-73.6-73.6h418.8 C475.544,394.7,481.044,389.3,481.044,382.5z"/>
      <path d="M477.444,98l-94.5-94.4c-4.8-4.8-12.5-4.8-17.3,0s-4.8,12.5,0,17.3l73.6,73.6h-418.8c-6.8,0-12.3,5.5-12.3,12.3 s5.5,12.3,12.3,12.3h418.8l-73.6,73.4c-4.8,4.8-4.8,12.5,0,17.3c2.4,2.4,5.5,3.6,8.7,3.6s6.3-1.2,8.7-3.6l94.5-94.5 C482.244,110.6,482.244,102.8,477.444,98z"/>
  </symbol>

  <symbol viewBox="0 0 331 331" id="archive">
      <path d="M197.074,216.42c0,6.075-4.925,11-11,11h-40.612c-6.075,0-11-4.925-11-11s4.925-11,11-11h40.612	C192.149,205.42,197.074,210.345,197.074,216.42z M331.533,51.903v68.317c0,6.075-4.925,11-11,11h-7.13V279.63 c0,6.075-4.925,11-11,11H29.131c-6.075,0-11-4.925-11-11V131.221H11c-6.075,0-11-4.925-11-11V51.903c0-6.075,4.925-11,11-11h309.533 C326.608,40.903,331.533,45.828,331.533,51.903z M291.403,131.221H221.24c-5.133,25.933-28.055,45.545-55.472,45.545 c-27.417,0-50.34-19.612-55.472-45.545H40.131V268.63h251.272V131.221z M165.768,154.766c15.205,0,28.147-9.873,32.75-23.545 h-65.501C137.621,144.893,150.563,154.766,165.768,154.766z M309.533,62.903H22v46.317h287.533V62.903z"/>
  </symbol>

  <symbol viewBox="0 0 512 512" id="go-back">
    <polygon points="497.333 239.999 80.092 239.999 176.087 144.004 153.46 121.377 18.837 256 153.46 390.623 176.087 367.996 80.09 271.999 497.333 271.999 497.333 239.999"/>
  </symbol>
</svg>


