<svg width="99" height="75" viewBox="0 0 99 75" xmlns="http://www.w3.org/2000/svg">
<path d="M98.5673 49.8016C98.5673 46.5857 96.2561 44.1225 92.3411 42.1956V34.2809C92.3412 34.267 92.3423 34.2535 92.3423 34.2398C92.3423 33.2484 92.1099 32.3233 91.6773 31.4617C95.9947 28.9024 98.5663 25.6105 98.5663 21.7888V12.4507C98.5663 4.56841 83.3381 0 64.3267 0C45.3153 0 30.0873 4.56826 30.0873 12.4506V21.7886C30.0873 23.3056 30.4947 24.7386 31.2534 26.076C26.5891 28.076 23.8633 30.7273 23.8632 34.2394H23.862V43.5774C23.862 47.1987 26.172 50.3439 30.0873 52.8413V59.1409C30.0873 68.5156 45.5587 74.7043 64.3269 74.7043C83.0951 74.7043 98.5664 68.5156 98.5664 59.1409V49.8324C98.5664 49.8221 98.5673 49.8119 98.5673 49.8016ZM92.3418 49.8028H92.3411C92.3411 49.8787 92.3287 49.9559 92.3044 50.0341C92.3038 50.0363 92.3028 50.0384 92.302 50.0405C92.2904 50.0767 92.2766 50.113 92.26 50.1496C92.2553 50.16 92.2493 50.1706 92.2441 50.181C92.2303 50.2094 92.2158 50.2378 92.1989 50.2665C92.19 50.2817 92.1792 50.2971 92.1695 50.3124C92.1541 50.3364 92.1389 50.3604 92.1214 50.3846C92.1079 50.4035 92.0924 50.4223 92.0777 50.4413C92.0614 50.4621 92.0454 50.4831 92.0275 50.5041C92.0093 50.5255 91.9892 50.5471 91.9694 50.5687C91.9524 50.5874 91.9357 50.6059 91.9175 50.6246C91.8944 50.6483 91.8696 50.672 91.8447 50.6959C91.8272 50.7126 91.81 50.7293 91.7918 50.746C91.7638 50.7716 91.734 50.7973 91.7041 50.8229C91.6864 50.838 91.6691 50.8532 91.6507 50.8682C91.6174 50.8956 91.5826 50.9231 91.5471 50.9506C91.5297 50.9641 91.5126 50.9775 91.4946 50.991C91.4559 51.0202 91.4156 51.0494 91.3744 51.0786C91.3575 51.0906 91.3408 51.1024 91.3237 51.1145C91.2793 51.1452 91.2334 51.176 91.1863 51.2069C91.1705 51.2172 91.1546 51.2277 91.1385 51.238C91.0881 51.2705 91.0361 51.3029 90.9827 51.3354C90.9683 51.3443 90.9539 51.3531 90.9391 51.3619C90.8823 51.3961 90.8239 51.4303 90.7639 51.4645C90.7516 51.4715 90.7391 51.4786 90.7265 51.4856C90.663 51.5215 90.5978 51.5573 90.5309 51.5932C90.5207 51.5987 90.5105 51.604 90.5003 51.6095C90.4295 51.6472 90.357 51.6849 90.2824 51.7226C90.2759 51.7259 90.2693 51.7291 90.2628 51.7324C90.1841 51.7721 90.1034 51.8119 90.0204 51.8516C90.0178 51.8528 90.0151 51.8542 90.0125 51.8554C88.7113 52.4779 86.9072 53.1021 84.7115 53.6712C87.4205 52.1834 89.5167 50.4276 90.82 48.4468C91.8553 49.0769 92.3421 49.5864 92.3421 49.8011C92.342 49.8021 92.3418 49.8024 92.3418 49.8028ZM30.0873 43.5774V41.8529C30.1006 41.8595 30.1147 41.8661 30.1279 41.8728C30.2988 41.9589 30.4726 42.0441 30.6495 42.1281C30.7096 42.1565 30.7716 42.1843 30.8322 42.2126C30.9579 42.2711 31.0844 42.3293 31.213 42.3868C31.2906 42.4214 31.3697 42.4556 31.4484 42.4898C31.5651 42.5406 31.6826 42.591 31.8016 42.6409C31.8831 42.6751 31.9648 42.709 32.0474 42.7427C32.1721 42.7938 32.2986 42.8443 32.426 42.8943C32.5027 42.9245 32.579 42.9551 32.6567 42.985C32.8261 43.0504 32.9982 43.1146 33.1718 43.1782C33.2091 43.1919 33.2455 43.206 33.283 43.2197C33.4902 43.2947 33.7008 43.3686 33.9136 43.4414C33.9887 43.4671 34.065 43.4922 34.1407 43.5176C34.2866 43.5665 34.4332 43.615 34.5817 43.6629C34.6675 43.6905 34.7538 43.7179 34.8404 43.7451C34.9854 43.7907 35.1316 43.8358 35.2789 43.8805C35.364 43.9063 35.449 43.9322 35.5348 43.9577C35.7029 44.0076 35.873 44.0565 36.044 44.105C36.1087 44.1234 36.1726 44.1422 36.2378 44.1603C36.4738 44.2263 36.7124 44.2909 36.9538 44.3542C37.0084 44.3685 37.0641 44.3824 37.119 44.3967C37.3091 44.4459 37.5005 44.4947 37.6937 44.5424C37.7783 44.5632 37.8637 44.5837 37.949 44.6044C38.118 44.6453 38.2881 44.6856 38.4594 44.7254C38.5486 44.7461 38.6381 44.7667 38.7279 44.7871C38.9074 44.8278 39.0883 44.8677 39.2702 44.907C39.3489 44.924 39.4271 44.9414 39.5063 44.9582C40.03 45.0695 40.5636 45.1756 41.1067 45.2765C41.1799 45.29 41.2539 45.3032 41.3275 45.3166C41.5286 45.3533 41.7306 45.3893 41.9341 45.4245C42.0228 45.4399 42.1121 45.4551 42.2014 45.4701C42.3986 45.5034 42.5969 45.5361 42.7963 45.568C42.8814 45.5817 42.9664 45.5955 43.0519 45.6089C43.2851 45.6455 43.5199 45.6811 43.756 45.7157C43.8052 45.723 43.854 45.7306 43.9034 45.7378C44.1967 45.7803 44.4922 45.8217 44.7899 45.8615C44.8273 45.8665 44.8651 45.8711 44.9025 45.8761C45.1573 45.9098 45.4137 45.9425 45.6716 45.9741C45.7527 45.9841 45.8345 45.9937 45.916 46.0035C46.1368 46.0299 46.3587 46.0557 46.5817 46.0807C46.6683 46.0904 46.7548 46.1 46.8417 46.1094C47.0769 46.1349 47.3132 46.1597 47.5508 46.1836C47.6187 46.1904 47.6862 46.1975 47.7544 46.2042C48.3753 46.2655 49.0039 46.321 49.64 46.3707C49.7011 46.3754 49.7626 46.3798 49.8239 46.3845C50.0786 46.4039 50.3344 46.4225 50.5914 46.4401C50.6741 46.4457 50.7569 46.4512 50.8399 46.4567C51.0876 46.4731 51.3363 46.4884 51.586 46.5032C51.6614 46.5076 51.7366 46.5122 51.8122 46.5164C52.1122 46.5334 52.4134 46.5492 52.7163 46.5637C52.7365 46.5646 52.7566 46.5658 52.777 46.5667C53.1182 46.5828 53.4611 46.5974 53.8056 46.6105C53.8199 46.6111 53.8342 46.6114 53.8485 46.612C54.1623 46.6237 54.4775 46.6339 54.794 46.643C54.865 46.645 54.9362 46.6468 55.0075 46.6486C55.275 46.6558 55.5433 46.662 55.8124 46.6673C55.89 46.6689 55.9675 46.6704 56.0453 46.6717C56.3304 46.6768 56.6166 46.6807 56.9037 46.6836C56.9551 46.684 57.0063 46.6848 57.0577 46.6853C57.4047 46.6883 57.7527 46.6904 58.1023 46.6904C58.4524 46.6904 58.801 46.6885 59.1485 46.6853C59.1949 46.6848 59.241 46.6842 59.2873 46.6837C59.5813 46.6807 59.8741 46.6768 60.1661 46.6716C60.2371 46.6704 60.3079 46.669 60.3786 46.6675C60.6579 46.662 60.9364 46.6555 61.2137 46.648C61.2748 46.6464 61.3361 46.6448 61.397 46.6432C62.4166 46.614 63.4224 46.5713 64.4131 46.515C64.4676 46.512 64.522 46.5087 64.5764 46.5055C64.8517 46.4894 65.1257 46.4723 65.3985 46.4542C65.4595 46.4501 65.5203 46.4462 65.5811 46.4421C65.8708 46.4223 66.1591 46.4014 66.446 46.3793C66.4766 46.377 66.5073 46.3748 66.5378 46.3725C67.193 46.3214 67.8407 46.2641 68.4799 46.201C68.5097 46.1981 68.5393 46.195 68.5691 46.1919C68.8499 46.1639 69.1287 46.1346 69.4063 46.1044C69.4602 46.0984 69.514 46.0925 69.568 46.0864C69.8332 46.0569 70.0969 46.0264 70.3591 45.9948C70.403 45.9895 70.4472 45.9843 70.491 45.979C71.4145 45.8661 72.318 45.7401 73.2002 45.6011C73.2415 45.5946 73.2824 45.5879 73.3236 45.5814C73.5754 45.5413 73.8253 45.5001 74.0736 45.4578C74.1194 45.4501 74.1653 45.4423 74.211 45.4344C74.4765 45.3887 74.7399 45.3419 75.0012 45.2938C75.0179 45.2908 75.0348 45.2877 75.0515 45.2847C75.6274 45.1782 76.1926 45.0657 76.7468 44.9476C76.7671 44.9432 76.7874 44.9388 76.8077 44.9344C77.0553 44.8813 77.3005 44.8271 77.5435 44.7716C77.5845 44.7623 77.6254 44.7529 77.6663 44.7435C77.8996 44.6898 78.1306 44.635 78.3595 44.5792C78.3907 44.5716 78.422 44.5641 78.4531 44.5565C79.239 44.3634 79.9987 44.1576 80.7306 43.9395C80.7618 43.9302 80.7925 43.9208 80.8237 43.9115C81.0351 43.848 81.2441 43.7834 81.4508 43.7179C81.4853 43.7069 81.5198 43.696 81.5541 43.685C81.7762 43.6139 81.9956 43.5417 82.2119 43.4683C82.2209 43.4653 82.23 43.4624 82.2388 43.4594C82.7066 43.3001 83.1609 43.135 83.6014 42.9646C83.6164 42.9589 83.6313 42.9528 83.6464 42.947C83.8433 42.8704 84.0373 42.7927 84.2285 42.7139C84.2599 42.7008 84.2914 42.6879 84.3227 42.6748C84.5058 42.5986 84.6864 42.5214 84.8641 42.4432C84.8873 42.433 84.911 42.4228 84.9341 42.4125C85.3425 42.2315 85.7369 42.0453 86.1157 41.8535V43.3651L86.0614 43.812C85.5264 48.2211 73.2704 52.9149 58.1024 52.9149C57.5259 52.9149 56.9525 52.9084 56.3825 52.8953C56.3821 52.8953 56.3818 52.8953 56.3813 52.8953C56.1289 52.8895 55.8775 52.8819 55.6266 52.8737C55.56 52.8714 55.4934 52.8693 55.427 52.8669C55.2616 52.8609 55.0969 52.8539 54.9323 52.847C54.8011 52.8413 54.6698 52.8359 54.5392 52.8295C54.4947 52.8273 54.4505 52.8248 54.4061 52.8226C50.0125 52.6003 45.9566 51.9925 42.4665 51.1376C42.4171 51.1252 42.3669 51.1134 42.3179 51.1011C42.2834 51.0926 42.2496 51.0838 42.2153 51.0751C39.4711 50.3766 37.034 49.4981 35.0249 48.4716L33.2546 47.5671C31.2297 46.2861 30.0873 44.905 30.0873 43.5774ZM92.3411 21.7886C92.3411 23.5415 90.3512 25.3877 86.9644 26.9715L86.9577 26.967L85.4068 27.6023C83.9389 28.2037 82.3148 28.737 80.5674 29.196C76.0034 30.3738 70.4091 31.1267 64.3269 31.1267C64.2755 31.1267 64.2244 31.1261 64.1731 31.1259C63.932 31.1255 63.6917 31.1238 63.4519 31.1209C63.3245 31.1194 63.1975 31.1174 63.0704 31.1153C62.9015 31.1124 62.7332 31.1088 62.5649 31.1048C61.9544 31.0902 61.349 31.0688 60.7503 31.0395C60.7386 31.0389 60.7269 31.0384 60.7152 31.0378C55.99 30.8042 51.6529 30.1243 47.9871 29.1703C43.9967 28.1166 40.725 26.6904 38.5747 25.0206L37.4066 24.1136C36.6947 23.3407 36.3127 22.5559 36.3127 21.7889V20.0644C36.322 20.0691 36.3317 20.0735 36.341 20.0782C36.519 20.168 36.7 20.2566 36.8845 20.3442C36.9243 20.363 36.9655 20.3814 37.0055 20.4001C37.152 20.4686 37.3002 20.5366 37.4506 20.6036C37.5163 20.6329 37.5832 20.6617 37.6496 20.6907C37.7792 20.7472 37.9102 20.8033 38.0428 20.8589C38.1144 20.8889 38.1861 20.9187 38.2584 20.9483C38.3957 21.0045 38.5346 21.06 38.6747 21.115C38.7405 21.1409 38.8056 21.167 38.8722 21.1926C39.065 21.2669 39.2603 21.3403 39.4584 21.4125C39.4721 21.4175 39.4851 21.4227 39.4988 21.4275C39.7111 21.5046 39.927 21.5801 40.1452 21.6547C40.2122 21.6777 40.2806 21.7 40.3483 21.7228C40.5022 21.7745 40.6572 21.8257 40.8139 21.8763C40.8943 21.9022 40.9752 21.9279 41.0564 21.9534C41.2076 22.0011 41.36 22.0481 41.5138 22.0947C41.5939 22.1189 41.6737 22.1434 41.7544 22.1672C41.9283 22.2188 42.1043 22.2695 42.2814 22.3197C42.3413 22.3367 42.4004 22.354 42.4606 22.3709C42.6978 22.4372 42.9375 22.5021 43.1801 22.5659C43.2331 22.5799 43.2874 22.5933 43.3407 22.6071C43.5321 22.6566 43.7246 22.7057 43.9192 22.7538C44.004 22.7747 44.0897 22.7953 44.1751 22.8159C44.3431 22.8565 44.5119 22.8966 44.6823 22.9361C44.7735 22.9573 44.865 22.9784 44.9569 22.9992C45.132 23.0389 45.3086 23.0778 45.4862 23.1162C45.5696 23.1343 45.6524 23.1527 45.7363 23.1705C45.9832 23.2229 46.232 23.2743 46.4832 23.3245C46.4964 23.3271 46.5095 23.3299 46.5227 23.3325C46.7873 23.3851 47.0548 23.4362 47.3241 23.4862C47.4083 23.5018 47.4935 23.5169 47.5781 23.5322C47.7666 23.5664 47.9558 23.6003 48.1464 23.6333C48.2455 23.6505 48.345 23.6674 48.4449 23.6842C48.6283 23.7152 48.8127 23.7455 48.9981 23.7753C49.0962 23.7911 49.194 23.8069 49.2925 23.8224C49.503 23.8554 49.7152 23.8874 49.9281 23.9189C49.9997 23.9295 50.0705 23.9405 50.1423 23.951C50.4262 23.9921 50.7122 24.0321 51.0004 24.0707C51.0677 24.0797 51.136 24.0882 51.2036 24.097C51.4264 24.1263 51.6501 24.1549 51.8754 24.1827C51.9774 24.1954 52.08 24.2074 52.1824 24.2197C52.3788 24.2431 52.5757 24.266 52.7738 24.2882C52.8814 24.3002 52.989 24.3122 53.097 24.3241C53.3022 24.3464 53.5086 24.3679 53.7155 24.3888C53.8117 24.3986 53.9074 24.4086 54.0041 24.4182C54.299 24.4472 54.5952 24.475 54.8934 24.5015C54.9005 24.5021 54.9075 24.5028 54.9145 24.5034C55.22 24.5303 55.5278 24.5557 55.8368 24.58C55.9339 24.5876 56.0318 24.5948 56.1292 24.6021C56.3441 24.6183 56.5596 24.6341 56.776 24.649C56.8891 24.6568 57.0025 24.6644 57.116 24.6718C57.3253 24.6855 57.5354 24.6986 57.7462 24.711C57.8561 24.7176 57.9658 24.7243 58.0761 24.7303C58.3178 24.7439 58.5605 24.7565 58.8038 24.7683C58.8806 24.7721 58.957 24.7764 59.0339 24.7799C59.3534 24.7949 59.6744 24.8085 59.9969 24.8208C60.0749 24.8237 60.1535 24.8261 60.2316 24.8288C60.4781 24.8376 60.7253 24.8459 60.9733 24.8532C61.087 24.8565 61.2011 24.8592 61.3153 24.8623C61.5331 24.8679 61.7513 24.8731 61.9703 24.8775C62.0895 24.8799 62.2088 24.8822 62.3283 24.8843C62.5552 24.8883 62.7828 24.8913 63.011 24.8937C63.1166 24.8949 63.2221 24.8965 63.328 24.8974C63.6598 24.9003 63.9925 24.9019 64.3267 24.9019C64.6609 24.9019 64.9936 24.9001 65.3254 24.8974C65.4314 24.8965 65.5368 24.8949 65.6425 24.8937C65.8706 24.8911 66.0983 24.8881 66.3252 24.8843C66.4447 24.8823 66.564 24.8799 66.6831 24.8775C66.9021 24.8731 67.1204 24.8679 67.3382 24.8623C67.4522 24.8592 67.5663 24.8565 67.6802 24.8532C67.9284 24.8459 68.1755 24.8376 68.4219 24.8288C68.5 24.8261 68.5786 24.8237 68.6565 24.8208C68.9789 24.8085 69.2999 24.7949 69.6194 24.7799C69.6964 24.7762 69.7729 24.772 69.8498 24.7682C70.0931 24.7562 70.3357 24.7437 70.5772 24.7302C70.6875 24.724 70.7974 24.7174 70.9074 24.7109C71.1181 24.6984 71.3281 24.6854 71.5373 24.6717C71.6508 24.6642 71.7643 24.6566 71.8776 24.6489C72.094 24.634 72.3094 24.6182 72.5241 24.6019C72.6217 24.5945 72.7196 24.5875 72.8169 24.5799C73.1258 24.5556 73.4336 24.5303 73.7391 24.5033C73.7463 24.5027 73.7532 24.5019 73.7604 24.5013C74.0586 24.4749 74.3548 24.4469 74.6495 24.418C74.7462 24.4084 74.8421 24.3984 74.9384 24.3887C75.1453 24.3677 75.3514 24.3463 75.5566 24.3239C75.6646 24.3122 75.7724 24.3002 75.8801 24.2881C76.0782 24.2659 76.2752 24.2429 76.4715 24.2195C76.574 24.2074 76.6765 24.1952 76.7785 24.1826C77.0036 24.1549 77.2272 24.1262 77.4499 24.097C77.5176 24.088 77.586 24.0797 77.6535 24.0706C77.9415 24.032 78.2274 23.9921 78.5113 23.951C78.5834 23.9405 78.6544 23.9295 78.7262 23.9189C78.9389 23.8874 79.1507 23.8555 79.3611 23.8225C79.4599 23.807 79.5579 23.7912 79.6561 23.7754C79.8412 23.7456 80.0254 23.7154 80.2087 23.6844C80.3086 23.6675 80.4084 23.6506 80.5077 23.6335C80.6981 23.6005 80.887 23.5667 81.0752 23.5325C81.16 23.517 81.2454 23.502 81.3298 23.4863C81.5989 23.4363 81.8664 23.3853 82.1309 23.3327C82.1447 23.3299 82.1581 23.3271 82.1718 23.3243C82.4226 23.2743 82.6708 23.2229 82.9171 23.1707C83.0013 23.1527 83.0843 23.1343 83.1681 23.1162C83.3453 23.0778 83.5217 23.039 83.6965 22.9994C83.7886 22.9785 83.8803 22.9574 83.9716 22.9361C84.1417 22.8968 84.3104 22.8567 84.478 22.8161C84.5636 22.7954 84.6495 22.7749 84.7346 22.7538C84.929 22.7057 85.1214 22.6568 85.3126 22.6072C85.3659 22.5934 85.4202 22.58 85.4734 22.5661C85.7158 22.5024 85.9556 22.4373 86.1927 22.3712C86.2532 22.3543 86.3127 22.3369 86.3728 22.3197C86.5496 22.2695 86.7251 22.2191 86.8987 22.1675C86.9797 22.1435 87.0597 22.1192 87.1399 22.0949C87.2934 22.0484 87.4459 22.0014 87.5968 21.9539C87.678 21.9283 87.759 21.9026 87.8394 21.8768C87.9961 21.8263 88.1509 21.7751 88.3047 21.7234C88.3725 21.7006 88.4411 21.6783 88.5083 21.6552C88.7264 21.5806 88.9422 21.505 89.1543 21.4281C89.1685 21.423 89.1822 21.4176 89.1963 21.4125C89.3939 21.3404 89.5887 21.2672 89.781 21.1932C89.8477 21.1675 89.9131 21.1413 89.979 21.1153C90.1189 21.0603 90.2576 21.005 90.3946 20.9489C90.4671 20.9193 90.5391 20.8893 90.6107 20.8592C90.7431 20.8038 90.8736 20.7478 91.0031 20.6915C91.0698 20.6624 91.1367 20.6334 91.2027 20.6041C91.3531 20.537 91.501 20.4691 91.6474 20.4007C91.6875 20.3819 91.7288 20.3635 91.7687 20.3446C91.9532 20.2572 92.1342 20.1685 92.312 20.0788C92.3213 20.0741 92.3312 20.0695 92.3404 20.0648V21.7886H92.3411ZM64.3269 6.22522C79.699 6.22522 92.3411 10.0177 92.3411 12.4506C92.3411 14.8834 79.699 18.676 64.3269 18.676C48.9548 18.676 36.3127 14.8834 36.3127 12.4506C36.3127 10.0177 48.9548 6.22522 64.3269 6.22522ZM31.3409 33.0711C32.4456 32.3174 34.0616 31.5775 36.0919 30.91C41.8938 34.7063 51.3661 37.0402 62.1167 37.3221C62.1635 37.3233 62.2103 37.3246 62.2571 37.3258C62.5208 37.3323 62.7854 37.3375 63.0506 37.3414C63.1493 37.343 63.2478 37.3448 63.3466 37.346C63.5996 37.3489 63.8536 37.3502 64.1079 37.351C64.1814 37.3512 64.2545 37.3525 64.3281 37.3525C64.6084 37.3525 64.8879 37.3507 65.1669 37.3478C65.2426 37.3471 65.3178 37.3457 65.3934 37.3446C65.5733 37.3423 65.7531 37.3398 65.9325 37.3363C66.1074 37.3329 66.2816 37.3287 66.4559 37.3243C66.5164 37.3227 66.5769 37.3212 66.6374 37.3195C73.9408 37.1192 80.6507 35.9719 86.0142 34.0616C86.0845 34.1517 86.1166 34.2132 86.1167 34.2395H86.1157C86.1157 36.6724 73.4736 40.4649 58.1015 40.4649C50.1759 40.4649 42.976 39.4568 37.8602 38.1465C33.0546 36.9156 30.0886 35.4182 30.0886 34.2398C30.0886 34.1474 30.3925 33.7181 31.3409 33.0711ZM92.3411 59.1409C92.3411 63.5184 79.9403 68.4789 64.3269 68.4789C48.7134 68.4789 36.3127 63.5184 36.3127 59.1409V57.4163C42.492 60.5455 52.7022 62.2536 64.3269 62.2536C65.2163 62.2536 66.0965 62.2423 66.9681 62.2224C66.9734 62.2222 66.9787 62.2221 66.9839 62.2221C68.4267 62.189 69.8434 62.1289 71.2291 62.0423C71.2461 62.0412 71.2631 62.0402 71.2801 62.0391C71.5502 62.0221 71.8192 62.0041 72.087 61.9851C72.092 61.9848 72.0969 61.9844 72.1019 61.9841C73.1932 61.9064 74.2638 61.8119 75.3114 61.7012C75.3301 61.6993 75.3489 61.6973 75.3676 61.6953C75.6123 61.6693 75.8557 61.6423 76.0978 61.6145C76.1306 61.6107 76.1634 61.6068 76.1963 61.6031C77.2181 61.4845 78.2168 61.3503 79.1893 61.2001C79.2009 61.1983 79.2126 61.1966 79.2241 61.1948C79.4453 61.1606 79.6645 61.1254 79.8829 61.0895C79.9298 61.0817 79.9766 61.0741 80.0234 61.0664C80.2347 61.0313 80.4448 60.9956 80.6533 60.9589C80.6943 60.9518 80.7349 60.9443 80.7758 60.9372C81.6792 60.777 82.5574 60.6027 83.4083 60.4145C83.4629 60.4025 83.5176 60.3905 83.5719 60.3783C83.7529 60.3378 83.9324 60.2964 84.1108 60.2546C84.1737 60.2399 84.2364 60.225 84.299 60.2101C84.4768 60.1677 84.654 60.125 84.8293 60.0814C84.8738 60.0703 84.9177 60.0589 84.962 60.0478C85.5359 59.9032 86.0953 59.752 86.64 59.5939C86.6992 59.5768 86.7589 59.5599 86.8177 59.5426C86.9697 59.4979 87.1199 59.4523 87.2694 59.4064C87.3433 59.3837 87.417 59.3611 87.4901 59.3383C87.6346 59.2932 87.7784 59.2476 87.9207 59.2015C87.9929 59.1781 88.0643 59.1542 88.1359 59.1305C88.2798 59.083 88.4237 59.0354 88.5651 58.9868C88.6057 58.9728 88.6452 58.9585 88.6855 58.9445C88.9776 58.843 89.2638 58.7392 89.545 58.6332C89.607 58.6098 89.6699 58.5869 89.7313 58.5633C89.8544 58.5161 89.9752 58.468 90.0961 58.42C90.1757 58.3884 90.2553 58.3568 90.3341 58.3247C90.4493 58.2779 90.5631 58.2305 90.6762 58.1829C90.7578 58.1485 90.8387 58.1137 90.9192 58.0789C91.0286 58.0317 91.1379 57.9842 91.2454 57.9362C91.3273 57.8996 91.4074 57.8624 91.4879 57.8253C91.6562 57.7479 91.822 57.6696 91.9851 57.5905C92.0853 57.5418 92.1863 57.4933 92.2845 57.4439C92.3029 57.4347 92.3222 57.4257 92.3406 57.4164V59.1409H92.3411Z"/>
<path d="M12.6846 0.738171C13.1911 0.224188 13.8986 -0.043692 14.6191 0.00639952C15.3156 -0.0458699 15.9947 0.224188 16.4663 0.738171L28.438 12.636C29.4292 13.6248 29.4292 15.2277 28.438 16.2164C27.4467 17.2052 25.8397 17.2052 24.8484 16.2164L17.1104 8.498V26.6529C17.1191 28.0424 15.9968 29.1749 14.6038 29.1814C14.5994 29.1814 14.5951 29.1814 14.5885 29.1814C13.1911 29.1727 12.0601 28.0467 12.0536 26.6529V8.50017L4.333 16.2164C3.34173 17.2052 1.73473 17.2052 0.743455 16.2164C-0.247818 15.2277 -0.247818 13.6248 0.743455 12.636L12.6846 0.738171Z"/>
<path d="M16.497 74.2618C15.9904 74.7758 15.283 75.0437 14.5625 74.9936C13.866 75.0459 13.1869 74.7758 12.7153 74.2618L0.743609 62.364C-0.247664 61.3752 -0.247664 59.7723 0.74361 58.7836C1.73488 57.7948 3.34188 57.7948 4.33315 58.7836L12.0712 66.502L12.0712 48.3471C12.0625 46.9576 13.1847 45.8251 14.5778 45.8186C14.5821 45.8186 14.5865 45.8186 14.5931 45.8186C15.9904 45.8273 17.1215 46.9533 17.128 48.3471L17.128 66.4998L24.8486 58.7836C25.8399 57.7948 27.4469 57.7948 28.4381 58.7836C29.4294 59.7723 29.4294 61.3752 28.4381 62.364L16.497 74.2618Z"/>
</svg>
