<svg width="30" height="30" viewBox="0 0 30 30" fill="none" xmlns="http://www.w3.org/2000/svg">
<path d="M1.26791 17.2662L3.23401 17.2785C3.52801 18.7913 4.10988 20.2613 4.99187 21.5965L3.59538 22.9808C3.09314 23.4769 3.09314 24.2793 3.58313 24.7815L5.08986 26.3066C5.58598 26.8089 6.38835 26.8089 6.89059 26.3189L8.28708 24.9346C9.61006 25.8289 11.0739 26.4352 12.5868 26.7415L12.5745 28.7076C12.5684 29.412 13.138 29.9816 13.8424 29.9877L15.9861 30C16.6905 30.0061 17.2601 29.4365 17.2662 28.7321L17.2785 26.766C18.7913 26.472 20.2613 25.8901 21.5965 25.0081L22.9808 26.4046C23.4769 26.9069 24.2793 26.9069 24.7815 26.4169L26.3066 24.9101C26.8089 24.414 26.8089 23.6116 26.3189 23.1094L24.9346 21.7129C25.8289 20.3899 26.4352 18.9261 26.7415 17.4132L28.7076 17.4255C29.412 17.4316 29.9816 16.862 29.9877 16.1576L30 14.0139C30.0061 13.3095 29.4365 12.7399 28.7321 12.7338L26.766 12.7215C26.472 11.2087 25.8901 9.73869 25.0081 8.40345L26.4046 7.01922C26.9069 6.5231 26.9069 5.72073 26.4169 5.21849L24.9101 3.69338C24.414 3.19114 23.6116 3.19114 23.1094 3.68113L21.7129 5.06537C20.3899 4.17113 18.9261 3.56476 17.4132 3.25851L17.4255 1.29241C17.4316 0.588042 16.862 0.0184237 16.1576 0.0122988L14.0139 4.89357e-05C13.3095 -0.00607599 12.7399 0.563542 12.7338 1.26791L12.7154 3.23401C11.1964 3.52801 9.72644 4.10988 8.39733 4.99187L7.01309 3.59538C6.51697 3.09314 5.71461 3.09314 5.21236 3.58313L3.69338 5.08986C3.19114 5.58598 3.19114 6.38835 3.68113 6.89059L5.06537 8.28708C4.17113 9.61006 3.56476 11.0739 3.25851 12.5868L1.29241 12.5745C0.588042 12.5684 0.0184237 13.138 0.0122988 13.8424L4.89357e-05 15.9861C-0.00607599 16.6844 0.563542 17.2601 1.26791 17.2662ZM10.982 10.9392C13.2238 8.72195 16.8314 8.74032 19.0486 10.982C21.2658 13.2238 21.2474 16.8314 19.0057 19.0486C16.764 21.2658 13.1564 21.2474 10.9392 19.0057C8.72195 16.764 8.74032 13.1564 10.982 10.9392Z" fill="#999999"/>
</svg>
