<svg width="73" height="75" viewBox="0 0 73 75" xmlns="http://www.w3.org/2000/svg">
<path d="M72.501 58.6413C72.501 57.5987 71.6578 56.7555 70.6153 56.7555H6.42374L17.7075 45.4718C18.4434 44.7359 18.4434 43.5554 17.7075 42.8195C16.9716 42.0836 15.7911 42.0836 15.0552 42.8195L0.567241 57.3074C-0.168654 58.0433 -0.168654 59.2238 0.567241 59.9597L15.0552 74.4477C15.4231 74.8156 15.8984 74.9996 16.389 74.9996C16.8796 74.9996 17.3549 74.8156 17.7228 74.4477C18.4587 73.7118 18.4587 72.5313 17.7228 71.7954L6.43907 60.5117H70.6459C71.6578 60.5117 72.501 59.6838 72.501 58.6413Z"/>
<path d="M71.9491 15.0245L57.4612 0.551921C56.7253 -0.183974 55.5448 -0.183974 54.8089 0.551921C54.073 1.28782 54.073 2.46832 54.8089 3.20421L66.0926 14.4879H1.88573C0.843213 14.4879 0 15.3312 0 16.3737C0 17.4162 0.843213 18.2594 1.88573 18.2594H66.0926L54.8089 29.5125C54.073 30.2484 54.073 31.4289 54.8089 32.1648C55.1768 32.5327 55.6521 32.7167 56.1427 32.7167C56.6333 32.7167 57.1085 32.5327 57.4765 32.1648L71.9644 17.6768C72.685 16.9563 72.685 15.7604 71.9491 15.0245Z"/>
</svg>
