<svg width="88" height="75" viewBox="0 0 88 75" fill="none" xmlns="http://www.w3.org/2000/svg">
<path d="M83.3442 31.8327V28.4367C83.3442 22.2267 79.0828 17.0065 73.3348 15.5107L73.3245 9.91142C73.3245 4.44695 68.8775 0 63.4107 0H62.8864L16.4902 14.3929C15.4335 14.454 14.431 14.6983 13.4895 15.0659H13.3685C5.99802 15.0659 0 21.0639 0 28.4367V61.6292C0 69.0008 5.99687 75 13.3685 75H69.9757C77.3462 75 83.3442 69.002 83.3442 61.6292V57.2145C86.0211 56.1786 87.9294 53.5834 87.9294 50.5435V38.5014C87.9283 35.4638 86.0211 32.8687 83.3442 31.8327ZM81.0141 50.5424C81.0141 50.6784 80.907 50.7855 80.771 50.7855H62.0556C61.9196 50.7855 61.8136 50.6784 61.8136 50.5424V38.5014C61.8136 38.3689 61.9219 38.2606 62.0556 38.2606H80.771C80.9047 38.2606 81.0141 38.3689 81.0141 38.5014V50.5424ZM63.8383 6.94526C65.2914 7.15268 66.4103 8.40414 66.4103 9.91718L66.4195 15.0671H37.6579L63.8383 6.94526ZM69.9757 68.0847H13.3696C9.8054 68.0847 6.91529 65.1934 6.91529 61.6281V28.4367C6.91529 24.8702 9.8054 21.9801 13.3696 21.9801H69.9757C73.5411 21.9801 76.4301 24.8702 76.4301 28.4367V31.3464H62.0556C58.1099 31.3464 54.8994 34.5557 54.8994 38.5014V50.5424C54.8994 54.4892 58.1099 57.6997 62.0556 57.6997H76.4301V61.6292C76.4301 65.1934 73.5411 68.0847 69.9757 68.0847Z" fill="#3D3D3D"/>
</svg>
